<svg width="375" height="47" viewBox="0 0 375 47" fill="none" xmlns="http://www.w3.org/2000/svg">
<g clip-path="url(#clip0_146_57)">
<path d="M376.196 0.610281C376.23 0.670975 376.368 1.75335 376.395 1.99613C376.644 4.22831 376.122 4.79142 376.196 4.91618C376.304 5.09826 376.675 4.84537 376.742 4.8656C377.538 5.12186 374.648 8.47352 377.039 7.04384C377.258 8.1633 375.98 9.23893 376 9.37044C376.058 9.76158 376.695 9.28951 376.793 9.46822C377.123 10.0718 375.68 11.3632 376.644 11.5959C377.09 11.7038 378.182 11.434 378.179 11.6465C377.912 12.395 375.505 14.5126 375.505 14.7149C375.505 14.961 377.747 15.9355 373.377 16.8425C373.209 16.9707 373.623 17.6855 373.526 17.8811C373.391 18.1475 371.078 18.5386 368.771 17.237C368.532 16.9403 368.245 16.5256 368.178 16.1479C368.026 15.3218 368.495 14.6576 368.326 14.5631C368.073 14.6576 367.156 15.3286 367.089 15.3555C365.774 15.8411 364.266 15.7669 362.931 15.4533C362.904 15.4398 362.857 15.4668 362.833 15.4533C362.685 15.3724 360.729 12.9952 360.753 12.83C360.807 12.4389 361.393 12.9514 361.545 12.7322C361.589 12.6681 360.844 11.6465 360.753 11.4441C359.165 7.89692 360.557 9.42101 361.596 8.9186C361.879 8.78036 362.011 8.17342 362.041 8.12621C362.267 7.77891 362.442 7.40463 362.634 7.03709C362.655 6.99663 362.779 7.23941 362.931 6.98651L362.783 5.74903C365.821 7.59345 365.285 6.54817 366.643 4.06646C366.853 3.98217 367.861 4.67003 367.932 4.65991C368.154 4.63631 369.476 2.50191 369.614 2.48168C369.87 2.44459 370.002 2.96048 370.11 2.97734C370.407 3.02118 371.769 1.18013 371.894 1.19362C372.146 1.22396 371.894 1.89497 372.288 1.88823C372.46 1.88823 375.083 0.236002 375.208 0.104498C375.309 0.121358 375.434 0.0674077 375.505 0.00671375C375.576 0.279836 376.156 0.51924 376.199 0.600165L376.196 0.610281Z" fill="#405329"/>
<path d="M327.931 46.8557C327.863 46.8355 327.003 46.1644 326.811 46.0127C325.058 44.6066 325.034 43.8378 324.892 43.8008C324.687 43.7502 324.602 44.1885 324.542 44.2189C323.797 44.5999 323.483 40.1861 322.795 42.8836C321.851 42.2463 321.996 40.5806 321.891 40.4997C321.575 40.2636 321.456 41.0459 321.261 40.9886C320.603 40.793 320.711 38.8609 319.865 39.3735C319.474 39.6095 318.887 40.5739 318.742 40.4221C318.402 39.7039 318.617 36.504 318.472 36.359C318.297 36.1837 316.024 37.0738 318.479 33.3479C318.509 33.1389 317.71 32.9264 317.64 32.714C317.545 32.4308 318.911 30.5223 321.463 29.8175C321.841 29.8614 322.337 29.9524 322.654 30.1716C323.345 30.647 323.48 31.4529 323.665 31.399C323.776 31.1528 323.952 30.03 323.985 29.9659C324.575 28.6947 325.695 27.6831 326.865 26.9616C326.895 26.9514 326.909 26.9009 326.936 26.8908C327.098 26.8435 330.159 27.1504 330.26 27.2853C330.497 27.5988 329.718 27.6528 329.768 27.9158C329.782 27.99 331.033 28.1923 331.238 28.2699C334.866 29.6658 332.803 29.5647 332.422 30.6538C332.317 30.9505 332.655 31.4765 332.665 31.5305C332.749 31.9385 332.891 32.3262 333.012 32.7207C333.025 32.7646 332.766 32.6803 332.837 32.9669L333.814 33.7391C330.362 34.5753 331.478 34.9394 332.263 37.6572C332.176 37.8662 330.975 38.0888 330.931 38.1427C330.793 38.3147 331.36 40.7627 331.275 40.874C331.12 41.0796 330.662 40.8099 330.574 40.874C330.331 41.0527 330.668 43.3186 330.567 43.3961C330.368 43.5512 330.072 42.9005 329.799 43.1837C329.681 43.3051 328.983 46.3263 328.986 46.5084C328.902 46.5691 328.851 46.6938 328.844 46.7882C328.602 46.6433 328.022 46.8827 327.934 46.8557L327.931 46.8557Z" fill="#405329"/>
<path d="M282.664 4.33288C282.684 4.40032 282.63 5.48944 282.617 5.73221C282.472 7.97452 281.858 8.43647 281.908 8.57471C281.983 8.77365 282.391 8.5882 282.455 8.62192C283.193 9.01306 279.761 11.805 282.367 10.8204C282.387 11.9601 280.941 12.7963 280.934 12.9278C280.92 13.3223 281.632 12.9683 281.696 13.1638C281.915 13.8146 280.27 14.8329 281.177 15.2342C281.595 15.4196 282.721 15.3455 282.681 15.5511C282.286 16.2424 279.545 17.9047 279.511 18.1037C279.471 18.3464 281.504 19.6986 277.043 19.8267C276.854 19.9245 277.137 20.7 277.006 20.8753C276.827 21.1148 274.48 21.0945 272.44 19.4086C272.258 19.0748 272.049 18.6162 272.046 18.2318C272.039 17.3922 272.619 16.819 272.471 16.6976C272.204 16.7482 271.186 17.2472 271.112 17.2607C269.733 17.5068 268.262 17.1696 266.998 16.6301C266.971 16.6133 266.924 16.6301 266.9 16.6133C266.769 16.5088 265.261 13.8247 265.312 13.6663C265.433 13.292 265.922 13.8989 266.108 13.7067C266.162 13.6528 265.605 12.5131 265.555 12.3006C264.614 8.53088 265.717 10.2741 266.826 9.96056C267.129 9.87626 267.365 9.29967 267.403 9.2592C267.686 8.95573 267.925 8.61855 268.178 8.29147C268.205 8.25775 268.286 8.51739 268.478 8.29147L268.549 7.04725C271.216 9.39408 270.872 8.27124 272.646 6.06603C272.865 6.01882 273.738 6.87191 273.809 6.87528C274.032 6.88877 275.708 5.02075 275.849 5.02412C276.109 5.03086 276.149 5.56362 276.25 5.59734C276.537 5.69175 278.196 4.11708 278.317 4.15417C278.56 4.22835 278.196 4.84204 278.587 4.9061C278.756 4.93308 281.629 3.76978 281.777 3.66188C281.875 3.6956 282.006 3.66188 282.087 3.61804C282.107 3.90128 282.64 4.23847 282.667 4.32277L282.664 4.33288Z" fill="#405329"/>
<path d="M237.635 41.4134C237.665 41.3493 237.746 40.2602 237.76 40.0175C237.891 37.7752 237.338 37.2424 237.406 37.1109C237.504 36.9221 237.888 37.1547 237.952 37.1311C238.734 36.8344 235.669 33.6412 238.134 34.9394C238.296 33.8098 236.961 32.8016 236.971 32.6701C237.008 32.2756 237.669 32.714 237.756 32.5285C238.053 31.9114 236.546 30.6976 237.493 30.411C237.932 30.2795 239.038 30.4919 239.024 30.2795C238.717 29.5444 236.202 27.5583 236.192 27.356C236.178 27.1099 238.367 26.0174 233.953 25.343C233.778 25.225 234.155 24.4899 234.047 24.2977C233.899 24.0381 231.569 23.7717 229.337 25.1946C229.114 25.5049 228.851 25.9331 228.801 26.3141C228.693 27.147 229.195 27.7876 229.033 27.8888C228.777 27.8079 227.826 27.1841 227.755 27.1638C226.417 26.7491 224.916 26.9042 223.598 27.2852C223.571 27.2987 223.524 27.2751 223.5 27.292C223.359 27.3796 221.531 29.858 221.565 30.0232C221.639 30.411 222.199 29.8681 222.36 30.0805C222.408 30.1412 221.716 31.2033 221.639 31.409C220.243 35.0372 221.551 33.4389 222.613 33.8874C222.903 34.0088 223.069 34.6089 223.099 34.6562C223.345 34.9933 223.537 35.3575 223.75 35.7116C223.773 35.7486 223.885 35.4991 224.05 35.7453L223.969 36.9895C226.902 34.9866 226.427 36.0589 227.914 38.4664C228.126 38.5406 229.097 37.8021 229.168 37.8055C229.391 37.819 230.824 39.8792 230.965 39.8927C231.222 39.9163 231.33 39.3937 231.434 39.3734C231.728 39.3127 233.184 41.0796 233.309 41.0594C233.558 41.0155 233.272 40.3614 233.666 40.3445C233.838 40.3378 236.546 41.845 236.677 41.9698C236.779 41.9462 236.903 41.9967 236.981 42.0541C237.038 41.7776 237.605 41.5078 237.642 41.4235L237.635 41.4134Z" fill="#405329"/>
<path d="M170.946 0.593435C170.98 0.654129 171.118 1.7365 171.145 1.97928C171.395 4.21147 170.872 4.77457 170.946 4.89933C171.054 5.08141 171.425 4.82852 171.492 4.84875C172.288 5.10502 169.398 8.45667 171.789 7.02699C172.008 8.14646 170.73 9.22209 170.75 9.35359C170.808 9.74473 171.445 9.27267 171.543 9.45138C171.873 10.0549 170.43 11.3464 171.394 11.579C171.84 11.6869 172.932 11.4172 172.929 11.6296C172.662 12.3782 170.255 14.4957 170.255 14.698C170.255 14.9442 172.497 15.9187 168.127 16.8257C167.959 16.9538 168.373 17.6687 168.276 17.8642C168.141 18.1306 165.828 18.5217 163.521 17.2202C163.282 16.9235 162.995 16.5087 162.928 16.1311C162.776 15.305 163.245 14.6407 163.076 14.5463C162.823 14.6407 161.906 15.3117 161.839 15.3387C160.524 15.8242 159.016 15.7501 157.681 15.4365C157.654 15.423 157.607 15.45 157.583 15.4365C157.435 15.3555 155.479 12.9784 155.503 12.8131C155.557 12.422 156.143 12.9345 156.295 12.7154C156.339 12.6513 155.594 11.6296 155.503 11.4273C153.915 7.88008 155.307 9.40417 156.346 8.90176C156.629 8.76351 156.761 8.15657 156.791 8.10937C157.017 7.76206 157.192 7.38778 157.384 7.02025C157.405 6.97978 157.529 7.22256 157.681 6.96967L157.533 5.73219C160.571 7.57661 160.035 6.53132 161.393 4.04962C161.603 3.96532 162.611 4.65318 162.682 4.64307C162.904 4.61947 164.226 2.48506 164.364 2.46483C164.62 2.42774 164.752 2.94364 164.86 2.9605C165.157 3.00433 166.519 1.16328 166.644 1.17677C166.896 1.20712 166.644 1.87812 167.038 1.87138C167.21 1.87138 169.833 0.219156 169.958 0.0876527C170.059 0.104512 170.184 0.050562 170.255 -0.010132C170.326 0.262991 170.906 0.502395 170.949 0.58332L170.946 0.593435Z" fill="#405329"/>
<path d="M122.036 46.8354C121.969 46.8152 121.106 46.1476 120.917 45.9958C119.16 44.5931 119.133 43.8277 118.992 43.7906C118.786 43.7401 118.702 44.1784 118.641 44.2121C117.896 44.5931 117.572 40.1793 116.891 42.8802C115.943 42.2463 116.085 40.5772 115.981 40.4997C115.664 40.2636 115.546 41.0459 115.35 40.9886C114.693 40.7964 114.797 38.8643 113.951 39.3768C113.56 39.6162 112.976 40.5806 112.831 40.4255C112.491 39.7073 112.696 36.5074 112.551 36.3657C112.376 36.1938 110.103 37.0873 112.551 33.3546C112.582 33.1422 111.779 32.9332 111.712 32.7241C111.617 32.4409 112.976 30.529 115.529 29.8175C115.906 29.8614 116.402 29.9524 116.719 30.1682C117.41 30.6437 117.549 31.4462 117.734 31.3922C117.845 31.1461 118.017 30.0232 118.048 29.9558C118.634 28.6846 119.754 27.6697 120.917 26.9447C120.947 26.9346 120.961 26.884 120.988 26.8739C121.15 26.8267 124.211 27.1268 124.313 27.2583C124.552 27.5719 123.773 27.6258 123.824 27.8888C123.837 27.963 125.088 28.1619 125.294 28.2395C128.925 29.6253 126.862 29.5309 126.484 30.62C126.379 30.9168 126.717 31.4394 126.73 31.4967C126.818 31.9047 126.956 32.2925 127.081 32.687C127.094 32.7308 126.835 32.6466 126.905 32.9332L127.887 33.702C124.434 34.5449 125.553 34.9057 126.346 37.6235C126.258 37.8325 125.061 38.0584 125.014 38.1124C124.876 38.2877 125.449 40.729 125.365 40.8436C125.209 41.0493 124.751 40.7795 124.663 40.8436C124.42 41.0223 124.761 43.2882 124.663 43.3658C124.464 43.5209 124.168 42.8701 123.894 43.1567C123.776 43.2815 123.085 46.2993 123.089 46.4814C123.004 46.5421 122.957 46.6668 122.947 46.7613C122.704 46.6196 122.124 46.859 122.036 46.8321L122.036 46.8354Z" fill="#405329"/>
<path d="M77.0797 4.98693C77.0999 5.05437 77.046 6.14349 77.0325 6.38627C76.8875 8.62857 76.2738 9.09052 76.3244 9.22877C76.3986 9.42771 76.8066 9.24225 76.8707 9.27597C77.6091 9.66711 74.1765 12.459 76.783 11.4744C76.8032 12.6141 75.3567 13.4504 75.35 13.5819C75.3365 13.9764 76.0479 13.6223 76.112 13.8179C76.3312 14.4687 74.6857 15.487 75.5927 15.8882C76.0108 16.0737 77.1371 15.9995 77.0966 16.2052C76.7021 16.8964 73.9607 18.5588 73.927 18.7577C73.8866 19.0005 75.9198 20.3526 71.4588 20.4807C71.27 20.5785 71.5532 21.3541 71.4217 21.5294C71.243 21.7688 68.8962 21.7486 66.8562 20.0626C66.6741 19.7288 66.465 19.2702 66.4617 18.8858C66.4549 18.0462 67.0349 17.473 66.8865 17.3516C66.6201 17.4022 65.6018 17.9013 65.5277 17.9147C64.1486 18.1609 62.6784 17.8237 61.414 17.2842C61.387 17.2673 61.3398 17.2842 61.3162 17.2673C61.1847 17.1628 59.6774 14.4788 59.728 14.3203C59.8494 13.946 60.3383 14.553 60.5238 14.3608C60.5777 14.3068 60.0214 13.1671 59.9708 12.9547C59.03 9.18493 60.1326 10.9282 61.242 10.6146C61.5455 10.5303 61.7815 9.95372 61.8186 9.91326C62.1018 9.60979 62.3412 9.2726 62.5941 8.94553C62.6211 8.91181 62.702 9.17144 62.8942 8.94553L62.965 7.7013C65.6322 10.0481 65.2883 8.92529 67.0619 6.72008C67.281 6.67288 68.1544 7.52596 68.2252 7.52933C68.4477 7.54282 70.1235 5.6748 70.2652 5.67817C70.5248 5.68491 70.5653 6.21767 70.6664 6.25139C70.953 6.3458 72.612 4.77113 72.7334 4.80822C72.9762 4.88241 72.612 5.49609 73.0031 5.56015C73.1717 5.58713 76.0446 4.42383 76.1929 4.31593C76.2907 4.34965 76.4222 4.31593 76.5031 4.27209C76.5234 4.55533 77.0561 4.89252 77.0831 4.97682L77.0797 4.98693Z" fill="#405329"/>
<path d="M32.0511 42.071C32.0814 42.0069 32.1624 40.9178 32.1759 40.675C32.3074 38.4327 31.7543 37.9 31.8218 37.7685C31.9196 37.5797 32.304 37.8123 32.368 37.7887C33.1503 37.492 30.0853 34.2988 32.5501 35.597C32.712 34.4674 31.3767 33.4592 31.3868 33.3277C31.4239 32.9332 32.0848 33.3715 32.1725 33.1861C32.4692 32.569 30.962 31.3552 31.9095 31.0685C32.3478 30.937 33.4538 31.1495 33.4403 30.937C33.1335 30.202 30.618 28.2159 30.6079 28.0136C30.5944 27.7675 32.7828 26.675 28.369 26.0006C28.1936 25.8826 28.5713 25.1475 28.4634 24.9553C28.315 24.6957 25.985 24.4293 23.7528 25.8522C23.5303 26.1625 23.2673 26.5907 23.2167 26.9717C23.1088 27.8046 23.6113 28.4452 23.4494 28.5464C23.1931 28.4655 22.2423 27.8417 22.1715 27.8214C20.8328 27.4067 19.3323 27.5618 18.0139 27.9428C17.987 27.9563 17.9397 27.9327 17.9161 27.9496C17.7745 28.0372 15.947 30.5156 15.9807 30.6808C16.0549 31.0685 16.6146 30.5257 16.7764 30.7381C16.8236 30.7988 16.1324 31.8609 16.0549 32.0666C14.6589 35.6948 15.9672 34.0965 17.0293 34.545C17.3193 34.6663 17.4845 35.2665 17.5149 35.3137C17.761 35.6509 17.9532 36.0151 18.1657 36.3691C18.1893 36.4062 18.3005 36.1567 18.4658 36.4029L18.3848 37.6471C21.3184 35.6442 20.8429 36.7165 22.3299 39.124C22.5424 39.1982 23.5134 38.4597 23.5843 38.4631C23.8068 38.4766 25.2399 40.5368 25.3815 40.5503C25.6378 40.5739 25.7457 40.0512 25.8502 40.031C26.1435 39.9703 27.6002 41.7372 27.7249 41.717C27.9745 41.6731 27.6879 41.019 28.0824 41.0021C28.2543 40.9954 30.9619 42.5026 31.0934 42.6274C31.1946 42.6038 31.3194 42.6543 31.3969 42.7117C31.4542 42.4352 32.0207 42.1654 32.0578 42.0811L32.0511 42.071Z" fill="#405329"/>
<path d="M255.91 20.7775C264.991 21.8397 270.905 24.9182 276.627 27.8956C281.672 30.5223 286.848 33.2198 293.895 34.2752C296.056 34.6022 298.393 34.7742 300.959 34.7405C311.81 34.6022 318.361 30.964 324.694 27.4471C329.923 24.5439 335.332 21.5396 343.488 20.383C359.161 18.1576 376.496 24.0685 395.007 37.9472L397.84 34.1706C378.293 19.5131 359.781 13.302 342.824 15.7096C333.801 16.9909 328.008 20.2077 322.404 23.3199C316.311 26.7019 310.559 29.8985 300.898 30.0198C291.164 30.1412 285.435 27.1605 278.806 23.7077C272.992 20.6797 266.404 17.2505 256.457 16.0872C256.032 16.0366 255.604 15.9928 255.179 15.9523C243.037 14.816 230.244 17.5675 217.029 24.1528C215.815 24.7563 214.598 25.3902 213.381 26.0646C213.374 26.068 213.364 26.0714 213.357 26.0747C208.883 28.2631 203.963 29.9322 197.031 30.0198C187.293 30.1412 181.567 27.1605 174.938 23.7077C169.125 20.6797 162.533 17.2505 152.589 16.0872C151.544 15.9658 150.495 15.8714 149.443 15.8073C144.224 15.0386 139.125 15.0048 134.158 15.7096C125.135 16.9909 119.339 20.2077 113.735 23.3199C107.645 26.7019 101.893 29.8985 92.2325 30.0198C82.4944 30.1412 76.769 27.1605 70.1399 23.7077C64.3268 20.6797 57.7347 17.2505 47.791 16.0872C32.4321 14.2967 16.0178 18.778 -1.00013 29.4095L1.50178 33.412C17.589 23.3637 32.975 19.1118 47.2414 20.7775C56.3253 21.8396 62.2395 24.9182 67.9583 27.8956C74.5503 31.3281 81.3683 34.8787 92.2898 34.7405C97.6376 34.673 101.94 33.7559 105.683 32.4206C109.544 31.0483 112.814 29.2308 116.028 27.4471C121.258 24.5439 126.663 21.5396 134.819 20.383C139.402 19.7322 144.126 19.7761 148.978 20.5145C150.003 20.5684 151.025 20.6595 152.04 20.7775C161.123 21.8397 167.038 24.9182 172.756 27.8956C177.582 30.4076 182.528 32.9837 189.117 34.1302C191.531 34.5483 194.165 34.7776 197.091 34.7405C202.075 34.6798 206.152 33.8773 209.716 32.6836C211.806 31.989 213.725 31.1562 215.542 30.2592C216.81 29.6388 218.031 28.988 219.231 28.3272C219.767 28.0338 220.297 27.7405 220.826 27.4471C226.056 24.5439 231.461 21.5396 239.621 20.383C244.446 19.6985 249.43 19.7828 254.558 20.6359C255.01 20.6764 255.462 20.7236 255.91 20.7775Z" fill="#405329"/>
</g>
<defs>
<clipPath id="clip0_146_57">
<rect width="46.8557" height="398.84" fill="white" transform="translate(397.84) rotate(90)"/>
</clipPath>
</defs>
</svg>
