<svg width="93" height="40" viewBox="0 0 93 40" fill="none" xmlns="http://www.w3.org/2000/svg">
<path d="M25.5713 8.28636C24.8644 7.57942 24.8651 6.43207 25.5713 5.72585C26.2783 6.43279 26.2775 7.58013 25.5713 8.28636Z" fill="#7FC49F"/>
<path d="M38.4829 17.2795C37.9291 17.311 37.4541 16.8872 37.4226 16.3334C37.9764 16.3018 38.4514 16.7256 38.4829 17.2795Z" fill="#7FC49F"/>
<path d="M36.1452 16.2817C36.0826 16.6874 35.7024 16.966 35.2968 16.9034C35.3593 16.4977 35.7395 16.2191 36.1452 16.2817Z" fill="#7FC49F"/>
<path d="M36.6159 16.003C36.5533 16.4087 36.1731 16.6873 35.7675 16.6247C35.83 16.219 36.2102 15.9405 36.6159 16.003Z" fill="#7FC49F"/>
<path d="M37.3406 17.6664C36.9692 17.2544 37.002 16.6187 37.414 16.2473C37.7855 16.6593 37.7526 17.2949 37.3406 17.6664Z" fill="#7FC49F"/>
<path d="M35.8447 17.2449C35.7805 16.6938 36.1756 16.1947 36.7266 16.1306C36.7907 16.6816 36.3957 17.1807 35.8447 17.2449Z" fill="#7FC49F"/>
<path d="M36.1497 15.4265C36.6863 15.5674 37.0073 16.117 36.8664 16.6536C36.3299 16.5127 36.0088 15.9631 36.1497 15.4265Z" fill="#7FC49F"/>
<path d="M36.8721 15.6511C37.197 15.934 37.2303 16.4264 36.948 16.7505C36.6232 16.4676 36.5899 15.9752 36.8721 15.6511Z" fill="#7FC49F"/>
<path d="M37.6597 15.4595C37.8227 15.9897 37.5248 16.5522 36.9945 16.7152C36.8315 16.185 37.1294 15.6225 37.6597 15.4595Z" fill="#7FC49F"/>
<path d="M36.5713 17.7072C36.2926 17.1412 36.5262 16.4542 37.0922 16.1755C37.371 16.7415 37.1374 17.4285 36.5713 17.7072Z" fill="#7FC49F"/>
<path d="M31.2647 6.68533C31.3445 5.92955 32.0226 5.38103 32.7784 5.46086C32.6986 6.21664 32.0205 6.76517 31.2647 6.68533Z" fill="#7FC49F"/>
<path d="M23.916 6.73754C24.1342 6.02549 24.8894 5.62465 25.6014 5.84289C25.3832 6.55494 24.6281 6.95578 23.916 6.73754Z" fill="#7FC49F"/>
<path d="M30.482 7.95086C30.6262 7.48069 31.1246 7.2169 31.5938 7.36071C31.4497 7.83087 30.9512 8.09466 30.482 7.95086Z" fill="#7FC49F"/>
<path d="M34.2623 9.46873C34.0278 8.76185 34.4113 7.99774 35.1182 7.76328C35.3526 8.47015 34.9692 9.23426 34.2623 9.46873Z" fill="#7FC49F"/>
<path d="M33.3506 12.4839C33.5688 11.7718 34.324 11.371 35.036 11.5892C34.8178 12.3013 34.0626 12.7021 33.3506 12.4839Z" fill="#7FC49F"/>
<path d="M7.36914 5.88684C6.65471 5.18747 6.64322 4.04018 7.34188 3.32648C8.05631 4.02586 8.0678 5.17314 7.36914 5.88684Z" fill="#7FC49F"/>
<path d="M7.40137 5.76855C6.69168 5.99436 5.93231 5.60158 5.7065 4.8919C6.41619 4.66609 7.17556 5.05887 7.40137 5.76855Z" fill="#7FC49F"/>
<path d="M27.7871 2.64233C27.1694 2.22631 27.0057 1.38719 27.4217 0.769481C28.0394 1.18551 28.2031 2.02462 27.7871 2.64233Z" fill="#7FC49F"/>
<path d="M16.4022 7.90121C15.5134 7.44329 15.1645 6.35029 15.622 5.46246C16.5107 5.92038 16.8596 7.01339 16.4022 7.90121Z" fill="#7FC49F"/>
<path d="M28.7093 0.245465C29.2768 1.06851 29.0688 2.19683 28.2466 2.76383C27.679 1.94078 27.8871 0.812455 28.7093 0.245465Z" fill="#7FC49F"/>
<path d="M36.8595 9.3803C36.203 10.1343 35.0583 10.2126 34.3051 9.55669C34.9617 8.80273 36.1064 8.72441 36.8595 9.3803Z" fill="#7FC49F"/>
<path d="M14.6619 7.09111C14.4041 6.71842 14.4968 6.20587 14.8703 5.94752C15.1281 6.32021 15.0354 6.83276 14.6619 7.09111Z" fill="#7FC49F"/>
<path d="M34.7713 12.8157C34.5135 12.443 34.6062 11.9305 34.9797 11.6721C35.2375 12.0448 35.1448 12.5574 34.7713 12.8157Z" fill="#7FC49F"/>
<path d="M8.8186 13.9486C8.00284 13.8323 7.43444 13.075 7.55068 12.2593C8.36643 12.3755 8.93484 13.1328 8.8186 13.9486Z" fill="#7FC49F"/>
<path d="M1.47875 22.5609C0.662999 22.4446 0.094594 21.6873 0.210838 20.8716C1.02659 20.9878 1.595 21.7451 1.47875 22.5609Z" fill="#7FC49F"/>
<path d="M7.35694 35.6631C7.76893 34.9495 8.68357 34.7045 9.39717 35.1165C8.98517 35.8301 8.07054 36.0751 7.35694 35.6631Z" fill="#7FC49F"/>
<path d="M8.35339 12.2151C8.16857 12.4273 7.84604 12.4496 7.6338 12.2648C7.81862 12.0525 8.14115 12.0303 8.35339 12.2151Z" fill="#7FC49F"/>
<path d="M7.40122 13.1617C7.26394 12.9626 7.31405 12.6899 7.51312 12.5526C7.6504 12.7517 7.60029 13.0244 7.40122 13.1617Z" fill="#7FC49F"/>
<path d="M13.741 2.26556e-05C14.5567 0.116267 15.1251 0.873586 15.0089 1.68934C14.1931 1.57309 13.6247 0.815776 13.741 2.26556e-05Z" fill="#7FC49F"/>
<path d="M14.2062 1.7317C14.391 1.51945 14.7135 1.49718 14.9258 1.68201C14.7409 1.89425 14.4184 1.91652 14.2062 1.7317Z" fill="#7FC49F"/>
<path d="M15.1613 0.784726C15.2986 0.983796 15.2484 1.25655 15.0494 1.39382C14.9121 1.19476 14.9622 0.922004 15.1613 0.784726Z" fill="#7FC49F"/>
<path d="M8.0889 23.8659C7.62741 24.5485 6.69772 24.7282 6.01508 24.2668C6.47657 23.5841 7.40626 23.4044 8.0889 23.8659Z" fill="#7FC49F"/>
<path d="M6.74882 23.0334C6.91089 23.4204 6.72785 23.8672 6.34079 24.0292C6.17873 23.6422 6.36177 23.1954 6.74882 23.0334Z" fill="#7FC49F"/>
<path d="M12.1865 32.4421C11.8132 31.7076 12.1068 30.8073 12.8413 30.434C13.2147 31.1686 12.9211 32.0688 12.1865 32.4421Z" fill="#7FC49F"/>
<path d="M12.4629 32.1495C12.6717 31.7856 13.1377 31.6593 13.5017 31.8681C13.2929 32.2321 12.8269 32.3583 12.4629 32.1495Z" fill="#7FC49F"/>
<path d="M1.57617 22.4655C1.50424 22.8789 1.1094 23.1567 0.69599 23.0847C0.767918 22.6713 1.16277 22.3935 1.57617 22.4655Z" fill="#7FC49F"/>
<path d="M9.39062 35.2329C9.45721 35.6472 9.17432 36.0384 8.76002 36.105C8.69343 35.6907 8.97632 35.2995 9.39062 35.2329Z" fill="#7FC49F"/>
<path d="M28.7675 2.92949C23.8093 0.440241 17.7518 0.318318 12.7082 2.6379C11.4484 3.20992 10.2484 3.91504 9.14708 4.75021C8.04571 5.58639 7.03578 6.54145 6.13965 7.59405L5.96998 7.79014L5.80944 7.99335L5.4894 8.40077C5.2801 8.67612 5.08502 8.96162 4.88486 9.24306L4.60444 9.67893C4.513 9.82524 4.41445 9.96748 4.33113 10.1199L4.07205 10.57C4.02937 10.6452 3.98568 10.7193 3.94403 10.7955L3.82515 11.0262C3.18404 12.2525 2.67806 13.549 2.32042 14.886C1.95974 16.2231 1.7606 17.6009 1.70878 18.9816C1.65696 20.3614 1.7545 21.7472 2.00444 23.1087C2.25438 24.4692 2.64962 25.8052 3.19827 27.0763C3.7459 28.3473 4.43273 29.5574 5.2425 30.6781L5.39288 30.8894C5.44368 30.9595 5.49854 31.0255 5.55137 31.0946L5.87142 31.5021C5.97607 31.6402 6.09291 31.7672 6.20468 31.8993L6.54403 32.2905C6.78178 32.5404 7.01648 32.7955 7.26236 33.0373L7.63727 33.3949L7.82523 33.5737L8.02031 33.7434C9.05665 34.6578 10.1926 35.4595 11.4037 36.129C13.8269 37.4661 16.5569 38.2444 19.3154 38.408" stroke="#1E3765" stroke-width="0.91442" stroke-miterlimit="10" stroke-linecap="round"/>
<path d="M37.382 18.9756C37.3871 18.8872 37.3911 18.7988 37.3871 18.7104C37.382 18.6221 37.3769 18.5326 37.3464 18.4493C37.2255 16.8349 36.873 15.2397 36.305 13.7238C36.0164 12.9679 35.6761 12.2323 35.288 11.5221C34.8978 10.8129 34.4508 10.1362 33.9651 9.48903C33.8401 9.32952 33.7233 9.16492 33.5922 9.01049L33.2021 8.54515C32.9298 8.24542 32.6595 7.94468 32.3689 7.66324C31.7928 7.0963 31.1832 6.56086 30.5309 6.0813C29.8797 5.60173 29.1959 5.16586 28.4857 4.77774C27.7745 4.39063 27.0328 4.06348 26.2738 3.78204C25.5159 3.49857 24.7345 3.27911 23.9431 3.11248C23.5488 3.02205 23.1475 2.96516 22.7482 2.90216L22.1457 2.83206C21.9445 2.80564 21.7424 2.80056 21.5412 2.7843L21.2384 2.76297L20.9346 2.75586C20.7324 2.75382 20.5302 2.74163 20.328 2.74671C19.9237 2.75789 19.5183 2.75992 19.1159 2.79954C18.7116 2.8219 18.3112 2.88184 17.9099 2.93163C17.7098 2.96109 17.5116 3.00072 17.3115 3.03526L17.0128 3.08911L16.7171 3.15718C15.1362 3.50568 13.6101 4.09192 12.1958 4.87629L11.6695 5.17907C11.4968 5.28473 11.3281 5.3965 11.1574 5.50521C11.0731 5.56109 10.9857 5.61291 10.9034 5.67082L10.6565 5.84659L10.4096 6.02237C10.3263 6.08028 10.245 6.14022 10.1668 6.20322L9.68928 6.57813C9.53282 6.70615 9.38245 6.84128 9.22903 6.97336C9.15282 7.04042 9.07561 7.10443 9.00042 7.17352L8.78096 7.38282C8.63669 7.52405 8.48428 7.65816 8.3461 7.80548C6.07123 10.1078 4.471 13.0725 3.81973 16.2456C3.16541 19.4156 3.42754 22.7715 4.59292 25.7931C5.74915 28.8178 7.79948 31.489 10.4127 33.4001C13.0198 35.3173 16.1888 36.4685 19.4228 36.6432" stroke="#1E3765" stroke-width="0.91442" stroke-miterlimit="10" stroke-linecap="round"/>
<path d="M27.1891 6.0994C26.1863 5.59748 25.1246 5.21749 24.0374 4.94824C23.9023 4.90963 23.7641 4.88627 23.627 4.85579L23.2155 4.76942L22.7999 4.70237C22.6617 4.679 22.5236 4.65563 22.3833 4.64242C22.105 4.61092 21.8266 4.57232 21.5461 4.55911L21.1265 4.53066L20.7049 4.52151C19.5812 4.50221 18.4564 4.60178 17.3581 4.82429C16.2608 5.05188 15.1889 5.40241 14.1678 5.8647C13.1477 6.328 12.1733 6.89799 11.2792 7.57771C10.3851 8.25641 9.56522 9.03265 8.83774 9.88713L8.69956 10.0456L8.56951 10.2112L8.30941 10.5425C8.13974 10.766 7.98225 10.9987 7.81867 11.2252L7.5921 11.5798C7.51793 11.6987 7.43665 11.8135 7.36959 11.9364L7.16029 12.3012C7.12575 12.3622 7.08917 12.4221 7.05564 12.4841L6.96013 12.671C6.44095 13.6647 6.03149 14.7142 5.74192 15.7973C5.44931 16.8794 5.28878 17.996 5.24611 19.1187C5.20445 20.2424 5.2837 21.3692 5.48589 22.4716C5.68909 23.574 6.00711 24.655 6.45111 25.6842C6.89511 26.7135 7.45189 27.6939 8.10926 28.6043L8.23118 28.776C8.27182 28.8329 8.31754 28.8867 8.36021 28.9426L8.62031 29.2738C8.70363 29.3866 8.80015 29.4892 8.89159 29.5959L9.16693 29.9139C9.36099 30.1161 9.55099 30.3234 9.75013 30.5205L10.0549 30.8111L10.2073 30.9564L10.3669 31.0935C11.2091 31.8362 12.1307 32.4865 13.1111 33.0301C15.0761 34.1132 17.2809 34.7421 19.5222 34.8762" stroke="#1E3765" stroke-width="0.91442" stroke-miterlimit="10" stroke-linecap="round"/>
<path d="M14.5723 34.4973C14.5093 34.1427 14.7582 33.8084 15.1148 33.7576C15.5669 33.6926 16.0912 34.6253 16.6724 34.5186C16.6724 34.5186 18.3285 34.2138 19.8292 33.8064C23.1241 32.9103 27.11 30.8528 27.6759 30.5572C27.6942 30.547 27.7135 30.5389 27.7328 30.5307C28.508 30.2137 29.4387 29.9282 30.4943 29.6844C32.0102 29.3349 33.9112 29.0849 35.5877 29.4304C35.8 29.4741 35.9748 29.6214 36.054 29.8226C36.5092 30.9778 37.6065 35.0886 32.1525 38.853C32.0529 38.9221 31.9351 38.9597 31.8142 38.9647C30.3501 39.0196 20.5942 39.3508 16.5098 38.5858C16.3727 38.5604 16.2477 38.4923 16.1542 38.3886C15.7783 37.9761 14.8009 35.7866 14.5723 34.4973Z" fill="#1D2041"/>
<path d="M19.4454 32.4421C19.4454 32.4421 35.9913 23.75 37.5133 30.664C37.5133 30.664 37.1282 22.7106 28.0754 16.5708C27.4882 17.7971 26.6073 19.6605 25.5598 21.9669C24.9014 23.4168 24.5925 24.128 24.3822 24.5892C23.5359 26.4475 22.084 29.1085 19.4443 32.4431L19.4454 32.4421Z" fill="#ADD3E8"/>
<path d="M36.7314 16.4785C35.9869 16.7255 35.1826 16.3211 34.936 15.5775C35.6805 15.3306 36.4847 15.735 36.7314 16.4785Z" fill="#7FC49F"/>
<path d="M35.8306 16.4708C35.5418 16.7596 35.0734 16.7596 34.7846 16.4708C35.0734 16.182 35.5418 16.182 35.8306 16.4708Z" fill="#7FC49F"/>
<path d="M37.5347 13.2103C37.2459 13.4991 36.7775 13.4991 36.4887 13.2103C36.7775 12.9215 37.2459 12.9215 37.5347 13.2103Z" fill="#7FC49F"/>
<path d="M38.9312 16.639C38.6424 16.9278 38.174 16.9278 37.8852 16.639C38.174 16.3502 38.6424 16.3502 38.9312 16.639Z" fill="#7FC49F"/>
<path d="M36.0641 19.9744C36.1367 19.5941 35.8873 19.2269 35.507 19.1543C35.1267 19.0817 34.7595 19.3311 34.6869 19.7114L34.3845 21.2953C34.3118 21.6756 34.5613 22.0427 34.9416 22.1154C35.3219 22.188 35.6891 21.9385 35.7617 21.5582L36.0641 19.9744Z" fill="#ADD3E8"/>
<path d="M38.3483 20.3775C38.4209 19.9972 38.1715 19.63 37.7912 19.5574C37.4108 19.4848 37.0437 19.7342 36.9711 20.1145L36.6686 21.6983C36.596 22.0786 36.8455 22.4458 37.2258 22.5184C37.6061 22.591 37.9733 22.3416 38.0459 21.9613L38.3483 20.3775Z" fill="#ADD3E8"/>
<path d="M37.3966 16.5042C37.5887 15.8777 38.2537 15.5247 38.8803 15.7167C38.6882 16.3433 38.0232 16.6963 37.3966 16.5042Z" fill="#7FC49F"/>
<path d="M29.3214 18.2665C29.2787 18.2289 29.233 18.1791 29.1842 18.1547C29.1801 18.1517 29.1842 18.1619 29.2025 18.1527C29.2167 18.1385 29.2106 18.1405 29.2127 18.1415C29.2421 18.2218 29.2878 18.299 29.3315 18.3783C30.3689 20.1919 31.8218 23.4096 31.0903 25.4843C31.1045 25.1511 31.0831 24.828 31.0344 24.5079C30.7783 22.9016 30.1769 21.3827 29.6567 19.8444C29.4768 19.2937 29.2624 18.7512 29.1466 18.1801C29.1466 18.1547 29.1354 18.1314 29.1649 18.1019C29.1923 18.0867 29.2076 18.1019 29.2116 18.1039C29.2645 18.1517 29.2868 18.2086 29.3204 18.2665H29.3214Z" fill="white"/>
<path d="M35.5343 29.7639C35.7029 31.8295 35.2528 34.7363 33.8223 36.3112C34.8098 34.2893 35.1045 31.9524 35.5343 29.7639Z" fill="white"/>
<path d="M37.2124 16.4001C38.8322 16.7094 39.8954 18.2757 39.5863 19.8944L39.5585 20.0401C39.4923 20.3864 39.1583 20.6133 38.812 20.5472L34.1973 19.6661C33.851 19.5999 33.6241 19.266 33.6903 18.9196L33.7181 18.7739C34.0274 17.1542 35.5937 16.091 37.2124 16.4001Z" fill="#E63B18"/>
<path d="M58.2641 13.9175H56.8179C56.7915 13.7304 56.7375 13.5642 56.6561 13.4189C56.5746 13.2714 56.4701 13.1459 56.3424 13.0425C56.2147 12.939 56.0673 12.8598 55.9 12.8047C55.7349 12.7497 55.5555 12.7222 55.3618 12.7222C55.0118 12.7222 54.7069 12.8091 54.4471 12.983C54.1874 13.1547 53.986 13.4057 53.8429 13.7359C53.6998 14.0638 53.6283 14.4623 53.6283 14.9311C53.6283 15.4132 53.6998 15.8182 53.8429 16.1462C53.9882 16.4742 54.1907 16.7219 54.4504 16.8891C54.7102 17.0564 55.0107 17.1401 55.3519 17.1401C55.5434 17.1401 55.7206 17.1148 55.8835 17.0641C56.0486 17.0135 56.1949 16.9398 56.3226 16.8429C56.4503 16.7439 56.5559 16.6239 56.6396 16.483C56.7254 16.3421 56.7849 16.1814 56.8179 16.0009L58.2641 16.0075C58.2267 16.3179 58.1331 16.6173 57.9835 16.9057C57.836 17.1918 57.6368 17.4483 57.3858 17.675C57.1371 17.8995 56.8399 18.0778 56.4943 18.2099C56.1509 18.3398 55.7624 18.4047 55.3287 18.4047C54.7256 18.4047 54.1863 18.2682 53.7108 17.9953C53.2376 17.7223 52.8633 17.3272 52.5882 16.8099C52.3152 16.2926 52.1788 15.6664 52.1788 14.9311C52.1788 14.1937 52.3174 13.5664 52.5948 13.0491C52.8721 12.5318 53.2486 12.1377 53.724 11.867C54.1995 11.594 54.7344 11.4576 55.3287 11.4576C55.7206 11.4576 56.0838 11.5126 56.4184 11.6227C56.7552 11.7327 57.0534 11.8934 57.3132 12.1047C57.5729 12.3138 57.7842 12.5703 57.9471 12.8741C58.1122 13.1778 58.2179 13.5256 58.2641 13.9175ZM59.2629 18.3123V13.2406H60.6695V18.3123H59.2629ZM59.9695 12.5868C59.7604 12.5868 59.581 12.5175 59.4313 12.3788C59.2838 12.2379 59.2101 12.0695 59.2101 11.8736C59.2101 11.6799 59.2838 11.5137 59.4313 11.375C59.581 11.2341 59.7604 11.1637 59.9695 11.1637C60.1786 11.1637 60.3569 11.2341 60.5044 11.375C60.6541 11.5137 60.729 11.6799 60.729 11.8736C60.729 12.0695 60.6541 12.2379 60.5044 12.3788C60.3569 12.5175 60.1786 12.5868 59.9695 12.5868ZM61.7963 18.3123V13.2406H63.16V14.1255H63.2128C63.3052 13.8107 63.4604 13.573 63.6784 13.4123C63.8963 13.2494 64.1472 13.1679 64.4312 13.1679C64.5016 13.1679 64.5776 13.1723 64.659 13.1811C64.7405 13.1899 64.812 13.2021 64.8736 13.2175V14.4656C64.8076 14.4458 64.7163 14.4281 64.5996 14.4127C64.4829 14.3973 64.3762 14.3896 64.2793 14.3896C64.0724 14.3896 63.8875 14.4348 63.7246 14.525C63.5639 14.6131 63.4362 14.7363 63.3416 14.8948C63.2491 15.0533 63.2029 15.236 63.2029 15.4429V18.3123H61.7963ZM67.6563 18.4113C67.1368 18.4113 66.6899 18.3012 66.3157 18.0811C65.9437 17.8588 65.6576 17.5506 65.4572 17.1566C65.2591 16.7626 65.1601 16.3091 65.1601 15.7962C65.1601 15.2767 65.2602 14.8211 65.4605 14.4292C65.6631 14.0352 65.9503 13.7282 66.3223 13.508C66.6944 13.2857 67.1368 13.1745 67.6497 13.1745C68.0921 13.1745 68.4796 13.2549 68.812 13.4156C69.1443 13.5763 69.4074 13.8019 69.6011 14.0925C69.7948 14.383 69.9016 14.7242 69.9214 15.116H68.594C68.5566 14.8629 68.4576 14.6593 68.2969 14.5052C68.1384 14.3489 67.9304 14.2708 67.6728 14.2708C67.4549 14.2708 67.2645 14.3302 67.1016 14.4491C66.9409 14.5657 66.8154 14.7363 66.7252 14.9609C66.6349 15.1854 66.5898 15.4572 66.5898 15.7764C66.5898 16.1 66.6338 16.3752 66.7219 16.6019C66.8121 16.8286 66.9387 17.0014 67.1016 17.1203C67.2645 17.2391 67.4549 17.2986 67.6728 17.2986C67.8335 17.2986 67.9777 17.2656 68.1054 17.1995C68.2352 17.1335 68.342 17.0377 68.4256 16.9123C68.5115 16.7846 68.5676 16.6316 68.594 16.4533H69.9214C69.8994 16.8407 69.7937 17.1819 69.6044 17.4769C69.4173 17.7696 69.1587 17.9986 68.8285 18.1637C68.4983 18.3288 68.1076 18.4113 67.6563 18.4113ZM74.0743 16.1528V13.2406H75.4809V18.3123H74.1305V17.391H74.0776C73.9632 17.6882 73.7727 17.927 73.5064 18.1075C73.2422 18.288 72.9198 18.3783 72.5389 18.3783C72.2 18.3783 71.9017 18.3012 71.6441 18.1472C71.3866 17.9931 71.1852 17.774 71.0399 17.4901C70.8968 17.2061 70.8242 16.866 70.822 16.4698V13.2406H72.2286V16.2189C72.2308 16.5182 72.3111 16.7549 72.4696 16.9288C72.6281 17.1027 72.8405 17.1896 73.1069 17.1896C73.2764 17.1896 73.4349 17.1511 73.5823 17.0741C73.7298 16.9948 73.8487 16.8781 73.9389 16.7241C74.0314 16.57 74.0765 16.3796 74.0743 16.1528ZM78.0126 11.55V18.3123H76.606V11.55H78.0126ZM80.5856 18.408C80.262 18.408 79.9737 18.3519 79.7205 18.2396C79.4674 18.1251 79.2671 17.9568 79.1196 17.7344C78.9743 17.5099 78.9017 17.2303 78.9017 16.8958C78.9017 16.614 78.9534 16.3774 79.0569 16.1858C79.1603 15.9943 79.3012 15.8403 79.4795 15.7236C79.6578 15.6069 79.8603 15.5189 80.087 15.4594C80.316 15.4 80.5559 15.3582 80.8068 15.334C81.1018 15.3031 81.3395 15.2745 81.5201 15.2481C81.7006 15.2195 81.8315 15.1777 81.913 15.1226C81.9944 15.0676 82.0351 14.9862 82.0351 14.8783V14.8585C82.0351 14.6494 81.9691 14.4876 81.837 14.3731C81.7072 14.2587 81.5223 14.2014 81.2823 14.2014C81.0292 14.2014 80.8278 14.2576 80.6781 14.3698C80.5284 14.4799 80.4293 14.6186 80.3809 14.7859L79.08 14.6802C79.146 14.372 79.2759 14.1057 79.4696 13.8811C79.6633 13.6544 79.9131 13.4805 80.2191 13.3594C80.5273 13.2362 80.8839 13.1745 81.2889 13.1745C81.5707 13.1745 81.8403 13.2076 82.0979 13.2736C82.3576 13.3396 82.5877 13.442 82.788 13.5807C82.9905 13.7193 83.1501 13.8976 83.2667 14.1156C83.3834 14.3313 83.4417 14.5899 83.4417 14.8915V18.3123H82.1078V17.609H82.0682C81.9867 17.7674 81.8778 17.9072 81.7413 18.0283C81.6048 18.1472 81.4408 18.2407 81.2493 18.309C81.0578 18.375 80.8366 18.408 80.5856 18.408ZM80.9884 17.4373C81.1954 17.4373 81.3781 17.3965 81.5366 17.3151C81.6951 17.2314 81.8194 17.1192 81.9097 16.9783C81.9999 16.8374 82.045 16.6778 82.045 16.4995V15.9613C82.001 15.9899 81.9405 16.0164 81.8634 16.0406C81.7886 16.0626 81.7039 16.0835 81.6092 16.1033C81.5145 16.1209 81.4199 16.1374 81.3252 16.1528C81.2306 16.166 81.1447 16.1781 81.0677 16.1891C80.9026 16.2134 80.7584 16.2519 80.6351 16.3047C80.5119 16.3575 80.4161 16.4291 80.3479 16.5193C80.2796 16.6074 80.2455 16.7174 80.2455 16.8495C80.2455 17.041 80.3149 17.1874 80.4535 17.2887C80.5944 17.3877 80.7727 17.4373 80.9884 17.4373ZM84.533 18.3123V13.2406H85.9396V18.3123H84.533ZM85.2396 12.5868C85.0305 12.5868 84.8511 12.5175 84.7014 12.3788C84.5539 12.2379 84.4802 12.0695 84.4802 11.8736C84.4802 11.6799 84.5539 11.5137 84.7014 11.375C84.8511 11.2341 85.0305 11.1637 85.2396 11.1637C85.4487 11.1637 85.627 11.2341 85.7745 11.375C85.9242 11.5137 85.999 11.6799 85.999 11.8736C85.999 12.0695 85.9242 12.2379 85.7745 12.3788C85.627 12.5175 85.4487 12.5868 85.2396 12.5868ZM87.0664 18.3123V13.2406H88.4301V14.1255H88.4829C88.5753 13.8107 88.7305 13.573 88.9484 13.4123C89.1664 13.2494 89.4173 13.1679 89.7013 13.1679C89.7717 13.1679 89.8477 13.1723 89.9291 13.1811C90.0106 13.1899 90.0821 13.2021 90.1437 13.2175V14.4656C90.0777 14.4458 89.9863 14.4281 89.8697 14.4127C89.753 14.3973 89.6462 14.3896 89.5494 14.3896C89.3425 14.3896 89.1576 14.4348 88.9947 14.525C88.834 14.6131 88.7063 14.7363 88.6117 14.8948C88.5192 15.0533 88.473 15.236 88.473 15.4429V18.3123H87.0664ZM51.4887 27.3948C51.1034 27.3948 50.7545 27.2957 50.442 27.0976C50.1316 26.8973 49.885 26.6035 49.7023 26.216C49.5218 25.8264 49.4316 25.3487 49.4316 24.783C49.4316 24.2019 49.5251 23.7187 49.7122 23.3335C49.8994 22.9461 50.1481 22.6566 50.4585 22.4651C50.7711 22.2714 51.1133 22.1745 51.4854 22.1745C51.7693 22.1745 52.006 22.223 52.1953 22.3198C52.3868 22.4145 52.5409 22.5333 52.6575 22.6764C52.7764 22.8173 52.8666 22.956 52.9283 23.0925H52.9712V20.55H54.3745V27.3123H52.9877V26.5H52.9283C52.8622 26.6409 52.7687 26.7807 52.6476 26.9193C52.5287 27.0558 52.3736 27.1692 52.1821 27.2594C51.9927 27.3497 51.7616 27.3948 51.4887 27.3948ZM51.9344 26.2755C52.1611 26.2755 52.3526 26.2138 52.5089 26.0906C52.6674 25.9651 52.7885 25.7901 52.8721 25.5656C52.958 25.341 53.0009 25.078 53.0009 24.7764C53.0009 24.4748 52.9591 24.2129 52.8754 23.9906C52.7918 23.7682 52.6707 23.5965 52.5122 23.4755C52.3538 23.3544 52.1611 23.2939 51.9344 23.2939C51.7033 23.2939 51.5085 23.3566 51.35 23.4821C51.1915 23.6076 51.0715 23.7814 50.9901 24.0038C50.9086 24.2261 50.8679 24.4836 50.8679 24.7764C50.8679 25.0714 50.9086 25.3322 50.9901 25.559C51.0737 25.7835 51.1937 25.9596 51.35 26.0873C51.5085 26.2127 51.7033 26.2755 51.9344 26.2755ZM57.8225 27.4113C57.3096 27.4113 56.866 27.3024 56.4918 27.0844C56.1198 26.8643 55.8326 26.5583 55.63 26.1665C55.4275 25.7725 55.3263 25.3157 55.3263 24.7962C55.3263 24.2723 55.4275 23.8145 55.63 23.4226C55.8326 23.0286 56.1198 22.7226 56.4918 22.5047C56.866 22.2846 57.3096 22.1745 57.8225 22.1745C58.3354 22.1745 58.7778 22.2846 59.1498 22.5047C59.5241 22.7226 59.8124 23.0286 60.0149 23.4226C60.2174 23.8145 60.3187 24.2723 60.3187 24.7962C60.3187 25.3157 60.2174 25.7725 60.0149 26.1665C59.8124 26.5583 59.5241 26.8643 59.1498 27.0844C58.7778 27.3024 58.3354 27.4113 57.8225 27.4113ZM57.8291 26.3217C58.0624 26.3217 58.2572 26.2557 58.4135 26.1236C58.5698 25.9893 58.6876 25.8066 58.7668 25.5755C58.8483 25.3443 58.889 25.0813 58.889 24.7863C58.889 24.4914 58.8483 24.2283 58.7668 23.9972C58.6876 23.766 58.5698 23.5833 58.4135 23.4491C58.2572 23.3148 58.0624 23.2476 57.8291 23.2476C57.5936 23.2476 57.3954 23.3148 57.2347 23.4491C57.0763 23.5833 56.9563 23.766 56.8748 23.9972C56.7956 24.2283 56.756 24.4914 56.756 24.7863C56.756 25.0813 56.7956 25.3443 56.8748 25.5755C56.9563 25.8066 57.0763 25.9893 57.2347 26.1236C57.3954 26.2557 57.5936 26.3217 57.8291 26.3217ZM61.2597 27.3123V20.55H62.6663V23.0925H62.7093C62.7709 22.956 62.86 22.8173 62.9767 22.6764C63.0956 22.5333 63.2497 22.4145 63.439 22.3198C63.6305 22.223 63.8682 22.1745 64.1522 22.1745C64.522 22.1745 64.8632 22.2714 65.1758 22.4651C65.4883 22.6566 65.7382 22.9461 65.9253 23.3335C66.1124 23.7187 66.2059 24.2019 66.2059 24.783C66.2059 25.3487 66.1146 25.8264 65.9319 26.216C65.7514 26.6035 65.5048 26.8973 65.1923 27.0976C64.8819 27.2957 64.5341 27.3948 64.1489 27.3948C63.8759 27.3948 63.6437 27.3497 63.4522 27.2594C63.2629 27.1692 63.1077 27.0558 62.9866 26.9193C62.8655 26.7807 62.7731 26.6409 62.7093 26.5H62.6465V27.3123H61.2597ZM62.6366 24.7764C62.6366 25.078 62.6784 25.341 62.7621 25.5656C62.8457 25.7901 62.9668 25.9651 63.1253 26.0906C63.2838 26.2138 63.4764 26.2755 63.7031 26.2755C63.9321 26.2755 64.1258 26.2127 64.2843 26.0873C64.4427 25.9596 64.5627 25.7835 64.6442 25.559C64.7278 25.3322 64.7696 25.0714 64.7696 24.7764C64.7696 24.4836 64.7289 24.2261 64.6475 24.0038C64.566 23.7814 64.446 23.6076 64.2876 23.4821C64.1291 23.3566 63.9343 23.2939 63.7031 23.2939C63.4742 23.2939 63.2805 23.3544 63.122 23.4755C62.9657 23.5965 62.8457 23.7682 62.7621 23.9906C62.6784 24.2129 62.6366 24.4748 62.6366 24.7764ZM67.1709 27.3123V20.55H68.5775V23.0925H68.6204C68.6821 22.956 68.7712 22.8173 68.8879 22.6764C69.0068 22.5333 69.1609 22.4145 69.3502 22.3198C69.5417 22.223 69.7794 22.1745 70.0634 22.1745C70.4332 22.1745 70.7744 22.2714 71.0869 22.4651C71.3995 22.6566 71.6494 22.9461 71.8365 23.3335C72.0236 23.7187 72.1171 24.2019 72.1171 24.783C72.1171 25.3487 72.0258 25.8264 71.8431 26.216C71.6626 26.6035 71.416 26.8973 71.1035 27.0976C70.7931 27.2957 70.4453 27.3948 70.0601 27.3948C69.7871 27.3948 69.5549 27.3497 69.3634 27.2594C69.1741 27.1692 69.0189 27.0558 68.8978 26.9193C68.7767 26.7807 68.6843 26.6409 68.6204 26.5H68.5577V27.3123H67.1709ZM68.5478 24.7764C68.5478 25.078 68.5896 25.341 68.6733 25.5656C68.7569 25.7901 68.878 25.9651 69.0365 26.0906C69.195 26.2138 69.3876 26.2755 69.6143 26.2755C69.8432 26.2755 70.037 26.2127 70.1954 26.0873C70.3539 25.9596 70.4739 25.7835 70.5553 25.559C70.639 25.3322 70.6808 25.0714 70.6808 24.7764C70.6808 24.4836 70.6401 24.2261 70.5586 24.0038C70.4772 23.7814 70.3572 23.6076 70.1987 23.4821C70.0403 23.3566 69.8454 23.2939 69.6143 23.2939C69.3854 23.2939 69.1917 23.3544 69.0332 23.4755C68.8769 23.5965 68.7569 23.7682 68.6733 23.9906C68.5896 24.2129 68.5478 24.4748 68.5478 24.7764ZM75.367 27.4113C74.8453 27.4113 74.3963 27.3057 74.0198 27.0943C73.6456 26.8808 73.3573 26.5792 73.1547 26.1896C72.9522 25.7978 72.851 25.3344 72.851 24.7995C72.851 24.2778 72.9522 23.82 73.1547 23.4259C73.3573 23.0319 73.6423 22.7248 74.0099 22.5047C74.3797 22.2846 74.8134 22.1745 75.3109 22.1745C75.6455 22.1745 75.9569 22.2285 76.2453 22.3363C76.5359 22.442 76.789 22.6016 77.0047 22.8151C77.2227 23.0286 77.3922 23.2972 77.5132 23.6208C77.6343 23.9421 77.6948 24.3186 77.6948 24.75V25.1363H73.4123V24.2646H76.3708C76.3708 24.0621 76.3267 23.8827 76.2387 23.7264C76.1506 23.5701 76.0285 23.448 75.8722 23.3599C75.7181 23.2697 75.5387 23.2245 75.334 23.2245C75.1205 23.2245 74.9312 23.2741 74.7661 23.3731C74.6032 23.47 74.4755 23.6009 74.383 23.766C74.2906 23.9289 74.2433 24.1105 74.2411 24.3108V25.1396C74.2411 25.3906 74.2873 25.6074 74.3797 25.7901C74.4744 25.9728 74.6076 26.1137 74.7793 26.2127C74.951 26.3118 75.1546 26.3613 75.3901 26.3613C75.5464 26.3613 75.6895 26.3393 75.8194 26.2953C75.9492 26.2513 76.0604 26.1852 76.1529 26.0972C76.2453 26.0091 76.3157 25.9013 76.3642 25.7736L77.6651 25.8594C77.5991 26.172 77.4637 26.445 77.259 26.6783C77.0565 26.9094 76.7945 27.0899 76.4731 27.2198C76.154 27.3475 75.7852 27.4113 75.367 27.4113ZM78.6127 27.3123V22.2406H79.9764V23.1255H80.0293C80.1217 22.8107 80.2769 22.573 80.4948 22.4123C80.7127 22.2494 80.9637 22.1679 81.2476 22.1679C81.3181 22.1679 81.394 22.1723 81.4755 22.1811C81.5569 22.1899 81.6285 22.2021 81.6901 22.2175V23.4656C81.6241 23.4458 81.5327 23.4281 81.416 23.4127C81.2994 23.3973 81.1926 23.3896 81.0958 23.3896C80.8888 23.3896 80.7039 23.4348 80.541 23.525C80.3804 23.6131 80.2527 23.7363 80.158 23.8948C80.0656 24.0533 80.0193 24.236 80.0193 24.4429V27.3123H78.6127ZM84.4926 27.4113C83.9709 27.4113 83.5218 27.3057 83.1454 27.0943C82.7712 26.8808 82.4828 26.5792 82.2803 26.1896C82.0778 25.7978 81.9765 25.3344 81.9765 24.7995C81.9765 24.2778 82.0778 23.82 82.2803 23.4259C82.4828 23.0319 82.7679 22.7248 83.1355 22.5047C83.5053 22.2846 83.939 22.1745 84.4364 22.1745C84.771 22.1745 85.0825 22.2285 85.3709 22.3363C85.6614 22.442 85.9146 22.6016 86.1303 22.8151C86.3482 23.0286 86.5177 23.2972 86.6388 23.6208C86.7599 23.9421 86.8204 24.3186 86.8204 24.75V25.1363H82.5379V24.2646H85.4963C85.4963 24.0621 85.4523 23.8827 85.3643 23.7264C85.2762 23.5701 85.154 23.448 84.9978 23.3599C84.8437 23.2697 84.6643 23.2245 84.4595 23.2245C84.246 23.2245 84.0567 23.2741 83.8916 23.3731C83.7287 23.47 83.6011 23.6009 83.5086 23.766C83.4162 23.9289 83.3688 24.1105 83.3666 24.3108V25.1396C83.3666 25.3906 83.4129 25.6074 83.5053 25.7901C83.6 25.9728 83.7331 26.1137 83.9048 26.2127C84.0765 26.3118 84.2801 26.3613 84.5157 26.3613C84.672 26.3613 84.8151 26.3393 84.9449 26.2953C85.0748 26.2513 85.186 26.1852 85.2784 26.0972C85.3709 26.0091 85.4413 25.9013 85.4897 25.7736L86.7907 25.8594C86.7246 26.172 86.5893 26.445 86.3845 26.6783C86.182 26.9094 85.9201 27.0899 85.5987 27.2198C85.2795 27.3475 84.9108 27.4113 84.4926 27.4113ZM89.1449 24.3802V27.3123H87.7383V22.2406H89.0789V23.1354H89.1383C89.2506 22.8404 89.4388 22.6071 89.7029 22.4354C89.9671 22.2615 90.2874 22.1745 90.6638 22.1745C91.016 22.1745 91.3231 22.2516 91.585 22.4057C91.8469 22.5598 92.0506 22.7799 92.1958 23.066C92.3411 23.35 92.4138 23.689 92.4138 24.083V27.3123H91.0072V24.334C91.0094 24.0236 90.9301 23.7814 90.7694 23.6076C90.6087 23.4315 90.3875 23.3434 90.1058 23.3434C89.9165 23.3434 89.7492 23.3841 89.6039 23.4656C89.4608 23.547 89.3485 23.6659 89.2671 23.8222C89.1878 23.9763 89.1471 24.1623 89.1449 24.3802Z" fill="black"/>
</svg>
