<svg width="189" height="173" viewBox="0 0 189 173" fill="none" xmlns="http://www.w3.org/2000/svg">
<g id="Laag_1" clip-path="url(#clip0_107_1313)">
<g id="Group">
<g id="Group_2">
<path id="Vector" d="M80.4462 138.272C78.5059 131.421 77.5511 124.155 79.4576 117.08C79.7937 115.479 80.449 114.12 81.0166 112.713L77.5087 112.451C75.24 112.281 73.351 114.187 73.5446 116.466L75.8261 143.655C77.4331 143.402 79.1489 143.17 80.9489 142.968C81.3238 141.72 81.025 139.655 80.4462 138.272Z" fill="#614E4A"/>
<path id="Vector_2" d="M126.505 116.115L113.35 115.132L107.393 114.684C108 116.285 108.295 118.196 108.16 120.228C107.805 125.587 104.598 129.739 100.997 129.5C97.397 129.261 94.762 124.721 95.1176 119.362C95.255 117.292 95.8158 115.409 96.6641 113.885L90.7114 113.438L81.0171 112.713C80.4543 114.121 79.799 115.479 79.4581 117.08C77.5516 124.155 78.5064 131.421 80.4467 138.272C81.0255 139.655 81.3196 141.72 80.9494 142.968C94.1474 141.491 111.766 141.829 123.906 150.956L129.862 120.535C130.289 118.349 128.716 116.281 126.505 116.115Z" fill="#052021"/>
</g>
<g id="Group_3">
<path id="Vector_3" d="M107.575 93.1079L110.185 53.7736C109.529 54.0518 108.807 54.1816 108.054 54.1316L107.934 54.1237C103.928 66.9278 105.942 79.6032 107.575 93.1079Z" fill="#0F6563"/>
<path id="Vector_4" d="M113.351 115.132C112.629 111.204 110.879 107.415 108.061 104.189C107.709 103.786 107.321 103.429 106.91 103.118L107.575 93.1079C105.941 79.6079 103.928 66.9278 107.934 54.1237L103.962 53.8601C103.208 53.8101 102.51 53.586 101.897 53.2237L98.6223 102.568C98.1744 102.822 97.7424 103.125 97.3406 103.477C94.1771 106.254 91.955 109.713 90.7116 113.438C88.1973 120.939 89.6146 129.537 95.1879 135.918C97.9524 139.083 102.75 139.402 105.908 136.629C110.674 132.447 113.295 126.724 113.685 120.854C113.811 118.946 113.704 117.023 113.351 115.132ZM100.998 129.5C97.3923 129.261 94.7622 124.721 95.1178 119.362C95.2552 117.292 95.816 115.409 96.6643 113.886C98.004 111.454 100.073 109.944 102.285 110.091C104.498 110.238 106.385 112.048 107.393 114.684C108.001 116.285 108.295 118.196 108.16 120.228C107.805 125.587 104.598 129.739 100.998 129.5Z" fill="#65B6B7"/>
</g>
<g id="Group_4">
<path id="Vector_5" d="M120.9 7.55391L98.2403 6.24715C97.318 16.9703 98.2015 27.7653 102.908 37.9689C104.942 42.8287 104.038 48.2233 101.401 52.8883C101.56 53.0093 101.725 53.1259 101.896 53.2236C102.509 53.586 103.208 53.81 103.961 53.86L107.934 54.1236L108.053 54.1315C108.806 54.1815 109.528 54.0518 110.184 53.7736C111.785 53.1068 112.955 51.5711 113.078 49.721L113.974 36.2112C116.759 35.3204 118.839 33.4946 119.34 31.2182L123.746 11.2959C124.157 9.44094 122.804 7.66582 120.9 7.55391ZM117.929 14.1462L115.178 26.587C114.863 28.0066 113.566 29.1498 111.829 29.7019L103.374 29.3522C101.535 28.6299 100.265 27.2732 100.167 25.7206L99.3826 12.9972C99.3106 11.8448 100.269 10.8953 101.429 10.9626L116.154 11.8101C117.342 11.8793 118.183 12.9867 117.929 14.1462Z" fill="#052021"/>
<path id="Vector_6" d="M102.909 37.9689C98.202 27.7653 97.3182 16.9751 98.2408 6.24715L97.3198 6.19564C95.4638 6.08689 93.9304 7.61288 94.0426 9.45933L95.3013 29.8296C95.4571 32.3175 97.4921 34.4933 100.438 35.649L99.5635 48.8242C99.455 50.4592 100.194 51.9583 101.401 52.8883C104.039 48.2233 104.942 42.8334 102.909 37.9689Z" fill="#888886"/>
</g>
<path id="Vector_7" d="M108.159 120.228C107.804 125.587 104.597 129.739 100.997 129.5C97.3961 129.261 94.7612 124.721 95.1168 119.362C95.2541 117.292 95.815 115.409 96.6633 113.885C98.0029 111.454 100.072 109.944 102.284 110.091C104.497 110.237 106.384 112.048 107.392 114.684C108 116.285 108.294 118.196 108.159 120.228Z" fill="#052021"/>
</g>
<g id="Group_5">
<path id="Vector_8" d="M63.7764 149.415C62.3303 161.174 58.4925 172.309 53.0421 182.698C36.2231 180.78 19.021 178.14 2.26633 174.532C0.424587 174.136 0.161302 171.607 1.87984 170.828C12.5754 165.992 38.056 155.179 63.7764 149.415Z" fill="#614E4A"/>
<path id="Vector_9" d="M130.603 158.737C129.838 159.8 128.242 159.815 127.469 158.755C126.231 157.05 124.828 155.54 123.268 154.208C112.636 145.095 94.9486 144.214 76.117 147.074C72.0379 147.697 67.9045 148.488 63.7765 149.415C62.3305 161.174 58.4926 172.309 53.0422 182.698C67.4466 184.336 81.5698 185.446 94.8998 186.167C102.325 179.299 112.24 176.187 121.431 170.281C126.282 167.622 129.751 162.978 131.43 157.669C131.124 158.032 130.851 158.389 130.603 158.737Z" fill="#463431"/>
<path id="Vector_10" d="M175.434 186.676C161.426 187.297 131.108 188.142 94.8992 186.167C102.324 179.299 112.239 176.187 121.43 170.281C126.281 167.622 129.751 162.978 131.43 157.669C134.704 153.732 141.155 149.479 149.253 161.843C149.349 161.983 149.46 162.12 149.587 162.23C151.437 163.87 166.226 176.898 176.365 183.05C178.013 184.047 177.356 186.592 175.434 186.676Z" fill="#0D0E0D"/>
</g>
</g>
<defs>
<clipPath id="clip0_107_1313">
<rect width="177" height="180" fill="white" transform="translate(12.1533 0.337891) rotate(3.79635)"/>
</clipPath>
</defs>
</svg>
