<svg width="52" height="56" viewBox="0 0 52 56" fill="none" xmlns="http://www.w3.org/2000/svg">
<g clip-path="url(#clip0_153_60)">
<path d="M25.3521 52.9799C39.3537 52.9799 50.7042 42.3566 50.7042 29.2521C50.7042 16.1476 39.3537 5.52429 25.3521 5.52429C11.3505 5.52429 0 16.1476 0 29.2521C0 42.3566 11.3505 52.9799 25.3521 52.9799Z" fill="#E2E2E2"/>
<path d="M51.9998 6.40527L51.7334 6.90903L51.7958 6.617L51.9998 6.40527Z" fill="#C7D3BB"/>
<path d="M51.8228 6.50018L51.7964 6.617L51.7148 6.70461L51.8228 6.50018Z" fill="#C7D3BB"/>
<path d="M34.1782 22.0486C34.5334 21.0922 34.8789 20.1357 35.2173 19.1842L30.43 23.5039L24.6325 32.3866L24.1094 35.874C26.0339 33.7908 28.0304 31.7417 29.9765 29.5831C31.7978 27.3076 33.06 24.7499 34.183 22.0486H34.1782Z" fill="#F5EAD7"/>
<path d="M35.2173 19.1818C34.8814 20.1358 34.5358 21.0897 34.1783 22.0462C33.0576 24.7475 31.7954 27.3076 29.9717 29.5806C28.028 31.7368 26.0291 33.7884 24.1046 35.8715L23.0176 43.1189L23.032 43.1602C29.4846 36.4921 33.6431 27.7822 35.8196 18.6367L35.2125 19.1842L35.2173 19.1818Z" fill="#4F3829"/>
<path d="M38.3198 16.3807L35.8218 18.6342C33.6429 27.7798 29.4868 36.4921 23.0342 43.1578L24.5196 47.0078C29.8731 38.4731 34.598 30.2134 38.3822 20.9097C39.0925 19.2037 39.4765 17.4393 39.834 15.6823L38.3174 16.3807H38.3198Z" fill="#3D3431"/>
<path d="M37.1729 50.1472L41.7825 46.5916L47.1793 39.0377L49.3534 30.7001L49.4518 29.4322C44.8469 34.5209 39.834 38.9793 38.2431 45.9321C37.9047 47.3631 37.5472 48.7649 37.1729 50.1472Z" fill="#5B4B3F"/>
<path d="M39.2244 33.5644C36.4216 37.8306 36.8415 42.8049 34.5979 47.2122C33.7148 49.0009 32.4718 50.4903 31.2168 51.9553L35.325 51.4613C39.0132 41.4129 43.5269 31.9218 49.5956 22.3333C49.658 22.2384 49.7179 22.141 49.7803 22.0437V20.3207L49.2524 17.8652C45.7394 22.7665 42.7686 28.2105 39.2244 33.5644Z" fill="#61412F"/>
<path d="M35.3271 51.4588L35.4975 51.4394L37.1725 50.1471C37.5468 48.7648 37.9044 47.3631 38.2427 45.9321C39.8337 38.9793 44.8465 34.5209 49.4514 29.4322L49.7825 25.2098V22.0437C49.7201 22.141 49.6601 22.236 49.5978 22.3333C43.5291 31.9218 39.013 41.4129 35.3271 51.4613V51.4588Z" fill="#4F3829"/>
<path d="M39.8359 15.6823C39.4784 17.4393 39.0944 19.2037 38.3842 20.9097C34.5999 30.2158 29.8751 38.4731 24.5215 47.0078L26.6428 52.5054L31.2165 51.9554C32.4715 50.4903 33.7145 49.0009 34.5975 47.2122C36.8412 42.805 36.4189 37.8282 39.224 33.5645C42.7683 28.2105 45.739 22.769 49.2521 17.8652L48.585 14.7697C48.0619 13.9398 47.7091 13.0637 47.4788 12.1584L39.8335 15.6823H39.8359Z" fill="#291D12"/>
<path d="M47.4814 12.1583C47.7118 13.0636 48.0646 13.9397 48.5877 14.7696L47.9758 11.932L47.4814 12.1608V12.1583Z" fill="#291D12"/>
<path d="M48.7607 37.7308C47.7024 38.8503 46.5458 39.8895 45.2524 40.8142C44.9717 41.0187 44.6957 41.2231 44.4222 41.4299C42.7184 44.8127 40.23 47.7354 36.6258 49.529C35.6947 50.8943 34.8716 52.3301 34.1445 53.839C42.0897 51.2569 46.4378 44.8273 48.7607 37.7308Z" fill="#E6D4B7"/>
<path d="M45.9795 15.7333C41.9721 21.5108 38.2694 27.5729 34.9555 33.7713C32.1456 39.0279 29.5684 44.472 27.2719 50.0036C26.7104 51.3494 26.1681 52.7024 25.6426 54.0604L27.4687 54.7881C27.8958 53.6856 28.335 52.5881 28.7861 51.4905C31.1305 45.7739 33.7797 40.1474 36.6809 34.7204C39.9564 28.5926 43.6182 22.601 47.5752 16.8893C47.868 16.4707 48.1583 16.0522 48.4535 15.636L46.8577 14.4776C46.5626 14.8962 46.2698 15.3148 45.9795 15.7358V15.7333Z" fill="#E0DACF"/>
<path d="M37.9815 16.6046C30.9122 21.9244 22.775 30.1793 22.0527 40.3348C22.799 38.5631 23.5405 36.7744 24.366 34.9857C27.0296 29.2983 31.9368 25.7452 35.721 20.6273C36.6305 19.3959 37.3048 18.0063 37.9815 16.6046Z" fill="#C6BCB3"/>
<path d="M50.4505 30.6198C50.8176 28.3443 51.0336 26.1078 51.1488 24.0101C51.096 24.1123 51.0456 24.2169 51 24.3216C50.1865 26.3828 50.1121 28.5171 50.4505 30.6198Z" fill="#E0DACF"/>
<path d="M51.7967 6.617L51.7151 6.70461L48.562 9.99243C48.562 9.99243 48.0677 10.2309 47.2158 10.6884C47.4438 12.6159 48.1013 14.4727 49.6011 16.0789C50.6905 17.1254 51.1008 18.459 51.2616 19.9143C51.2592 14.8937 50.7673 11.3918 50.7673 11.3918L51.7367 6.91147L51.7991 6.61944L51.7967 6.617Z" fill="#C6BCB3"/>
<path d="M47.213 10.686C45.3653 11.6765 41.8306 13.7061 37.9792 16.6046C37.3025 18.0039 36.6282 19.3959 35.7187 20.6274C31.9345 25.7453 27.0273 29.3008 24.3637 34.9857C23.5358 36.7744 22.7967 38.5631 22.048 40.3348C21.7577 44.4184 22.6623 48.8087 25.3211 53.4398L25.9858 55.2261L25.9546 55.287L25.9162 55.1872L25.7771 55.4524L27.8048 54.9901C30.1372 54.8562 32.2417 54.4595 34.1422 53.8414C34.8693 52.3325 35.6923 50.8967 36.6234 49.5315C34.5693 50.5511 32.1553 51.2058 29.3189 51.3688L28.7838 51.4905C28.3327 52.5856 27.8959 53.6856 27.4664 54.7881L25.6403 54.0604C26.1658 52.7049 26.7081 51.3518 27.2696 50.0036C15.9386 29.9627 45.802 15.6238 45.802 15.6238L45.9772 15.7358C46.2675 15.3148 46.5627 14.8962 46.8554 14.4776L48.4512 15.636C48.156 16.0522 47.8657 16.4707 47.5729 16.8893C47.7721 18.4712 49.2671 31.8098 44.4174 41.4324C44.691 41.2255 44.9669 41.0187 45.2477 40.8142C46.5411 39.8895 47.6977 38.8527 48.7559 37.7308C49.519 35.3946 50.0661 32.9853 50.4477 30.6174C50.1093 28.5172 50.1837 26.3804 50.9972 24.3216C51.0428 24.2145 51.0932 24.1123 51.146 24.0077C51.2252 22.5645 51.2564 21.1871 51.254 19.9094C51.0932 18.4566 50.6852 17.1229 49.5934 16.0741C48.0936 14.4679 47.4361 12.6135 47.2082 10.6836L47.213 10.686Z" fill="#CBBD78"/>
<path d="M16.9125 0L17.0061 0.562166L16.8789 0.294468L16.9125 0Z" fill="#C7D3BB"/>
<path d="M16.8281 0.184937L16.879 0.294449L16.8669 0.413697L16.8281 0.184937Z" fill="#C7D3BB"/>
<path d="M12.2767 23.4358C11.9791 22.4574 11.6744 21.4889 11.3648 20.5251L10.1914 26.9158L10.9737 37.5386L12.6678 40.6195C12.9318 37.7771 13.2701 34.9176 13.5029 32.0045C13.5701 29.0744 13.0206 26.2685 12.2743 23.4358H12.2767Z" fill="#F5EAD7"/>
<path d="M11.3672 20.5251C11.6767 21.4888 11.9815 22.4574 12.279 23.4357C13.0253 26.2685 13.5724 29.0744 13.5077 32.0045C13.2749 34.9175 12.9341 37.7795 12.6726 40.6195L16.1904 47.0224L16.2264 47.0443C17.2991 37.7649 15.3218 28.2981 11.516 19.7172L11.3672 20.5276V20.5251Z" fill="#4F3829"/>
<path d="M12.1275 16.3831L11.5156 19.7172C15.319 28.2981 17.2963 37.7673 16.2261 47.0443L19.7272 49.1639C18.8033 39.0912 17.5459 29.6293 14.9159 19.924C14.448 18.1353 13.6849 16.4999 12.905 14.8889L12.1299 16.3831H12.1275Z" fill="#3D3431"/>
<path d="M31.6204 43.7808L33.1154 38.1056L32.8154 28.7824L29.4967 20.8415L28.8105 19.778C28.2441 26.6627 26.9771 33.2992 29.9215 39.7824C30.519 41.1233 31.0829 42.452 31.6228 43.7784L31.6204 43.7808Z" fill="#5B4B3F"/>
<path d="M23.2234 29.4006C23.5833 34.5136 26.9236 38.1859 27.8139 43.0605C28.1978 45.022 28.1138 46.9737 28.0082 48.9109L30.9574 45.9662C27.8019 35.7328 25.635 25.4265 24.6392 14.0785C24.632 13.9641 24.62 13.8497 24.6104 13.7354L23.5689 12.375L21.666 10.7615C21.8508 16.8188 22.7914 22.9661 23.2234 29.4006Z" fill="#61412F"/>
<path d="M30.9549 45.9662L31.0773 45.8445L31.6196 43.7808C31.0797 42.4545 30.5158 41.1257 29.9183 39.7848C26.9763 33.3016 28.2433 26.6627 28.8072 19.7805L26.518 16.2371L24.6055 13.7354C24.6151 13.8497 24.6271 13.9641 24.6343 14.0785C25.6301 25.4289 27.797 35.7328 30.9525 45.9662H30.9549Z" fill="#4F3829"/>
<path d="M12.9023 14.8889C13.6798 16.5 14.4453 18.1329 14.9132 19.9241C17.5432 29.6293 18.8006 39.0912 19.7245 49.164L24.7229 52.189L28.0056 48.9109C28.1136 46.9737 28.1952 45.0244 27.8113 43.0605C26.921 38.1835 23.5831 34.5112 23.2208 29.4006C22.7888 22.9661 21.8482 16.8188 21.6634 10.7615L19.2662 8.72942C18.3519 8.39845 17.5432 7.92632 16.8161 7.35199L12.9023 14.8889Z" fill="#291D12"/>
<path d="M16.8164 7.3544C17.5435 7.9263 18.3522 8.40086 19.2664 8.73183L17.0684 6.86768L16.8164 7.3544Z" fill="#291D12"/>
<path d="M33.2755 26.7698C33.1171 28.3128 32.8292 29.8508 32.366 31.3864C32.2653 31.7223 32.1717 32.0557 32.0829 32.3891C32.7788 36.1222 32.5796 39.9771 30.8135 43.6348C30.9023 45.2945 31.1182 46.9397 31.4566 48.5824C36.1766 41.6052 35.7279 33.8225 33.2755 26.7698Z" fill="#E6D4B7"/>
<path d="M17.7879 11.112C18.1118 18.167 18.8461 25.2586 19.9716 32.2163C20.9266 38.1178 22.1792 44.0218 23.7054 49.8187C24.0749 51.2302 24.4637 52.6368 24.8692 54.0361L26.7529 53.4764C26.4242 52.3399 26.1074 51.1985 25.8003 50.0523C24.1997 44.0778 22.8943 37.984 21.9081 31.8926C20.7946 25.0152 20.0699 18.004 19.746 11.0316C19.722 10.5182 19.7004 10.0071 19.6812 9.49603L17.7207 9.57148C17.7399 10.085 17.7615 10.5985 17.7855 11.112H17.7879Z" fill="#E0DACF"/>
<path d="M11.993 16.7725C9.6198 25.3705 8.17522 36.9497 13.74 45.426C13.26 43.5618 12.7657 41.6879 12.3362 39.7605C11.0044 33.6107 12.7369 27.753 12.6361 21.3575C12.6121 19.8194 12.305 18.3008 11.993 16.775V16.7725Z" fill="#C6BCB3"/>
<path d="M30.317 20.0993C29.2324 18.0745 28.0518 16.1714 26.876 14.4411C26.8976 14.5555 26.9192 14.6674 26.948 14.7794C27.5503 16.9137 28.7813 18.6464 30.317 20.0968V20.0993Z" fill="#E0DACF"/>
<path d="M16.8787 0.294495L16.8667 0.413742L16.3603 4.97191C16.3603 4.97191 16.1132 5.46593 15.7148 6.35907C17.061 7.74137 18.7024 8.79999 20.8573 9.13583C22.3522 9.28672 23.4801 10.0874 24.4855 11.1363C21.45 7.16947 18.9471 4.70665 18.9471 4.70665L17.0058 0.564626L16.8787 0.294495Z" fill="#C6BCB3"/>
<path d="M15.7152 6.35667C14.8537 8.28896 13.2867 12.0854 11.9933 16.7701C12.3053 18.296 12.6124 19.8146 12.6364 21.3526C12.7372 27.7506 11.0071 33.6083 12.3365 39.7556C12.7636 41.6831 13.2579 43.557 13.7403 45.4211C15.9767 48.8282 19.3458 51.7364 24.2434 53.7441L25.8488 54.7419L25.8608 54.81L25.7696 54.754L25.8176 55.0509L27.1398 53.4253C28.9035 51.8702 30.3241 50.247 31.4543 48.5799C31.116 46.9373 30.9 45.2897 30.8112 43.6324C29.8058 45.7156 28.2916 47.733 26.1488 49.624L25.8008 50.0523C26.108 51.1985 26.4247 52.3399 26.7535 53.4764L24.8697 54.0361C24.4666 52.6368 24.0779 51.2302 23.7059 49.8187C2.64437 41.0211 17.5845 11.1314 17.5845 11.1314L17.7908 11.1095C17.7668 10.596 17.7452 10.0825 17.726 9.56904L19.6865 9.4936C19.7057 10.0047 19.7273 10.5182 19.7513 11.0292C20.8648 12.156 30.1033 21.7688 32.0854 32.3867C32.1766 32.0532 32.2702 31.7174 32.3686 31.3816C32.8317 29.846 33.1197 28.3103 33.2781 26.765C32.4694 24.4433 31.4447 22.202 30.3169 20.092C28.7787 18.6416 27.5501 16.9064 26.9478 14.7746C26.919 14.6626 26.8974 14.5482 26.8758 14.4338C26.0672 13.2438 25.2585 12.1365 24.4858 11.1266C23.4804 10.0777 22.3525 9.27701 20.8576 9.12612C18.7027 8.79028 17.0614 7.73166 15.7152 6.34937V6.35667Z" fill="#CBBD78"/>
<path d="M8.16841 43.3379C7.65489 42.9071 7.13897 42.4861 6.62305 42.0699L8.26919 46.027L12.5141 51.5976L14.5538 52.6732C13.678 51.0086 12.8405 49.3051 11.9238 47.6113C10.9088 45.971 9.59859 44.6252 8.17081 43.3379H8.16841Z" fill="#F5EAD7"/>
<path d="M6.62088 42.0675C7.1368 42.4837 7.65272 42.9071 8.16624 43.3355C9.59402 44.6228 10.9042 45.9662 11.9193 47.6089C12.8359 49.3027 13.6758 51.0062 14.5493 52.6708L18.787 54.9025H18.8158C16.0778 49.3879 11.5881 44.8954 6.41211 41.5662L6.62088 42.0675Z" fill="#4F3829"/>
<path d="M5.55525 39.5025L6.41432 41.5662C11.5927 44.8954 16.08 49.3878 18.818 54.9L21.5104 54.7759C17.3854 49.5606 13.2965 44.8078 8.36282 40.4248C7.46295 39.6096 6.45511 38.9914 5.44727 38.3903L5.55525 39.5V39.5025Z" fill="#3D3431"/>
<path d="M26.1394 47.4191L24.9276 43.737L21.417 38.7067L16.7353 35.5528L15.9746 35.2194C18.1343 39.2251 19.8164 43.3549 23.7662 45.8445C24.5773 46.3629 25.3644 46.8886 26.1394 47.4215V47.4191Z" fill="#5B4B3F"/>
<path d="M16.3461 42.5859C18.381 45.2726 21.5389 46.066 23.7802 48.4266C24.6968 49.3684 25.3495 50.4732 25.9854 51.5805L26.5541 48.867C21.1406 44.3892 16.2477 39.5025 11.626 33.6107C11.5804 33.5499 11.5325 33.4914 11.4869 33.433L10.4238 33.0656L8.79688 32.8782C11.0717 36.1514 13.7977 39.1934 16.3461 42.5834V42.5859Z" fill="#61412F"/>
<path d="M26.5541 48.8695L26.5781 48.7575L26.1365 47.4191C25.3638 46.8861 24.5744 46.3604 23.7633 45.8421C19.8135 43.3525 18.1314 39.2226 15.9717 35.2169L13.4377 34.1072L11.4844 33.433C11.53 33.4915 11.578 33.5499 11.6236 33.6107C16.2452 39.5025 21.1405 44.3868 26.5517 48.8671L26.5541 48.8695Z" fill="#4F3829"/>
<path d="M5.44751 38.3927C6.45535 38.9939 7.4632 39.612 8.36306 40.4273C13.2967 44.8102 17.3857 49.5655 21.5106 54.7783L25.3524 54.6031L25.9859 51.583C25.35 50.4757 24.6949 49.3684 23.7807 48.429C21.5394 46.0684 18.3815 45.275 16.3466 42.5883C13.7982 39.1983 11.0746 36.1563 8.79739 32.883L6.74571 32.647C6.1218 32.8027 5.5075 32.8392 4.90039 32.793L5.44751 38.3952V38.3927Z" fill="#291D12"/>
<path d="M4.90025 32.7906C5.50736 32.8368 6.12406 32.8003 6.74557 32.6446L4.86426 32.428L4.90025 32.7906Z" fill="#291D12"/>
<path d="M20.9463 37.4242C21.4118 38.3344 21.8054 39.2883 22.1005 40.3056C22.1653 40.5271 22.2349 40.7461 22.3045 40.9627C24.0274 42.7636 25.3016 44.966 25.64 47.6332C26.2855 48.5142 26.9958 49.3441 27.7708 50.1253C27.8692 44.5352 24.8289 40.4078 20.9463 37.4242Z" fill="#E6D4B7"/>
<path d="M6.7842 34.5038C9.49578 38.2759 12.4449 41.9166 15.562 45.3383C18.2064 48.2416 21.0164 51.0354 23.9392 53.6686C24.6495 54.311 25.3693 54.9438 26.094 55.5668L26.9315 54.5617C26.3436 54.0555 25.7581 53.5445 25.1774 53.0237C22.1514 50.3175 19.2431 47.4409 16.5147 44.4452C13.4312 41.0624 10.5156 37.4631 7.83524 33.7372C7.63847 33.4622 7.4417 33.1897 7.24973 32.9147L6.19629 33.6813C6.39066 33.9563 6.58743 34.2337 6.7842 34.5063V34.5038Z" fill="#E0DACF"/>
<path d="M5.62012 39.7653C7.39584 45.3845 10.7553 52.3033 16.8672 54.9243C15.9337 54.0726 14.9883 53.2232 14.0596 52.3179C11.1177 49.4171 9.97065 45.5476 7.61901 42.0578C7.0527 41.2182 6.34001 40.4954 5.62012 39.7678V39.7653Z" fill="#C6BCB3"/>
<path d="M16.9204 34.8372C15.5958 34.1193 14.2616 33.506 12.9922 32.9877C13.045 33.0412 13.0978 33.0972 13.153 33.1483C14.252 34.1023 15.5526 34.606 16.9204 34.8372Z" fill="#E0DACF"/>
<path d="M2.40234 28.8749L2.43834 28.9455L3.79413 31.6468C3.79413 31.6468 3.83492 32.0118 3.93571 32.6494C5.17392 32.9147 6.45772 32.8928 7.76792 32.2844C8.64618 31.8147 9.55564 31.8415 10.4867 32.0483C7.38878 30.9824 5.12593 30.5468 5.12593 30.5468L2.56792 28.9795L2.40234 28.8773V28.8749Z" fill="#C6BCB3"/>
<path d="M3.93555 32.6494C4.15391 34.0317 4.65304 36.7063 5.62009 39.7678C6.33998 40.4954 7.05507 41.2182 7.61898 42.0578C9.97062 45.5476 11.1176 49.4195 14.0596 52.3179C14.9858 53.2232 15.9313 54.075 16.8672 54.9243C19.3244 55.9781 22.2255 56.3383 25.6474 55.6374L26.8904 55.596L26.9216 55.6301H26.852L26.9864 55.7785L27.1328 54.3938C27.5479 52.885 27.7495 51.4662 27.7735 50.1301C26.9984 49.3489 26.2881 48.5215 25.6426 47.6381C25.8346 49.1591 25.7242 50.8286 25.2203 52.6635L25.1819 53.0285C25.7626 53.5469 26.3457 54.0604 26.936 54.5666L26.0985 55.5717C25.3738 54.9487 24.654 54.3159 23.9437 53.6735C9.16914 56.5962 6.68312 34.5963 6.68312 34.5963L6.78871 34.5087C6.59194 34.2361 6.39517 33.9587 6.2008 33.6837L7.25424 32.9171C7.44861 33.1921 7.64538 33.4671 7.83975 33.7397C8.85719 33.949 17.4047 35.8423 22.3071 40.9675C22.2375 40.7509 22.1679 40.5319 22.1032 40.308C21.808 39.2908 21.4145 38.3368 20.9489 37.4266C19.6699 36.4434 18.2997 35.5868 16.9223 34.8397C15.5546 34.6085 14.254 34.1047 13.1549 33.1507C13.0997 33.0996 13.0445 33.0437 12.9942 32.9901C12.1207 32.6324 11.2784 32.3209 10.4889 32.0483C9.55788 31.8415 8.64842 31.8171 7.77016 32.2844C6.45996 32.8928 5.17616 32.9171 3.93795 32.6494H3.93555Z" fill="#CBBD78"/>
</g>
<defs>
<clipPath id="clip0_153_60">
<rect width="52" height="56" fill="white"/>
</clipPath>
</defs>
</svg>
