<svg width="130" height="84" viewBox="0 0 130 84" fill="none" xmlns="http://www.w3.org/2000/svg">
<g clip-path="url(#clip0_107_1115)">
<path d="M117.33 66.5336L117.325 66.5332C117.206 66.2427 117.082 65.9567 116.962 65.6709C117.086 65.957 117.211 66.243 117.33 66.5336Z" fill="#004B70"/>
<path d="M123.984 71.2378C123.428 71.6073 122.83 71.816 122.251 71.8776C121.914 71.9123 121.589 71.8953 121.283 71.8268C120.489 71.6633 119.798 71.1907 119.395 70.4309L117.9 67.5965L83.231 71.1526C81.3459 71.3466 79.9181 69.9386 80.0483 68.0035C80.1786 66.0684 81.8171 64.3449 83.7019 64.1557L85.2543 63.9969C95.1893 64.3494 105.435 63.2195 115.387 62.8167C115.68 62.8029 115.968 62.7935 116.251 62.7839C116.861 62.7626 117.465 62.7411 118.075 62.7246L118.079 62.7249C117.959 62.444 117.83 62.1671 117.704 61.8953C117.579 61.6188 117.445 61.3416 117.315 61.0648C117.265 60.9513 117.21 60.8375 117.151 60.7234C113.23 52.6027 107.861 45.1601 103.203 36.9754C102.726 36.3113 101.975 35.8681 101.083 35.6118L91.9945 18.3336C91.1623 16.7551 91.8704 14.5572 93.5696 13.4267C95.2735 12.2965 97.3226 12.6547 98.1548 14.2332L125.55 66.335C126.382 67.9135 125.674 70.1114 123.975 71.2419L123.984 71.2378Z" fill="#3E6471"/>
<path d="M118.084 62.7253C117.476 62.737 116.871 62.7586 116.261 62.7845C115.973 62.7939 115.685 62.8033 115.397 62.8174C105.444 63.2249 95.1992 64.3501 85.2641 63.9975L114.442 61.0007L101.093 35.6077C101.99 35.8691 102.736 36.3072 103.213 36.9713C107.876 45.1611 113.241 52.5986 117.161 60.7193C117.216 60.8331 117.27 60.9469 117.325 61.0607C117.455 61.3328 117.589 61.6147 117.714 61.8913C117.835 62.1675 117.965 62.4396 118.085 62.7205L118.084 62.7253Z" fill="#22241E"/>
<path d="M118.089 62.7208L118.084 62.7205C117.964 62.4395 117.834 62.1674 117.714 61.8912C117.839 62.1677 117.969 62.4398 118.089 62.7208Z" fill="#004B70"/>
<path d="M34.8086 2.2381L115.893 7.69443C118.405 7.86346 119.681 9.73526 118.743 11.8745L93.0815 70.5467C92.1475 72.6863 89.354 74.2842 86.8422 74.1152L5.75328 68.6585C3.24144 68.4895 1.96455 66.6177 2.9033 64.4784L28.5645 5.80622C29.4985 3.66665 32.292 2.06875 34.8038 2.23778L34.8086 2.2381Z" fill="#3E6471"/>
<path d="M32.5648 1.85252L112.786 7.2508C115.27 7.4179 116.533 9.26968 115.606 11.3857L90.2163 69.4347C89.2887 71.5507 86.5251 73.1315 84.0419 72.9644L3.82044 67.5661C1.3372 67.399 0.073326 65.5472 1.00093 63.4312L26.3904 5.38224C27.318 3.26617 30.0816 1.68542 32.5648 1.85252Z" fill="#BDE1E3"/>
<path d="M32.7115 4.08873L41.0335 4.64873C42.3251 4.73565 42.9785 5.69889 42.4977 6.79647L39.2442 14.2333C38.7634 15.3309 37.3291 16.1537 36.0375 16.0668L27.7155 15.5068C26.4238 15.4198 25.7705 14.4566 26.2513 13.359L29.5048 5.92215C29.9856 4.82456 31.4199 4.00181 32.7115 4.08873Z" fill="#3E6471"/>
<path d="M46.9498 4.95109L55.2718 5.51109C56.5634 5.59801 57.2168 6.56125 56.736 7.65883L53.4825 15.0957C53.0017 16.1933 51.5674 17.016 50.2757 16.9291L41.9538 16.3691C40.6621 16.2822 40.0088 15.319 40.4896 14.2214L43.7431 6.78451C44.2239 5.68693 45.6582 4.86417 46.9498 4.95109Z" fill="#3E6471"/>
<path d="M61.193 5.81381L69.5149 6.37381C70.8066 6.46073 71.46 7.42397 70.9791 8.52155L67.7257 15.9584C67.2448 17.056 65.8106 17.8788 64.5189 17.7918L56.197 17.2318C54.9053 17.1449 54.2519 16.1817 54.7328 15.0841L57.9862 7.64723C58.4671 6.54965 59.9013 5.72689 61.193 5.81381Z" fill="#3E6471"/>
<path d="M75.4371 6.67657L83.7591 7.23657C85.0507 7.32349 85.7041 8.28673 85.2233 9.38431L81.9698 16.8212C81.489 17.9188 80.0547 18.7415 78.763 18.6546L70.4411 18.0946C69.1494 18.0077 68.4961 17.0444 68.9769 15.9469L72.2304 8.50999C72.7112 7.41241 74.1455 6.58965 75.4371 6.67657Z" fill="#3E6471"/>
<path d="M89.6754 7.53418L97.9974 8.09418C99.289 8.1811 99.9424 9.14434 99.4616 10.2419L96.2081 17.6788C95.7273 18.7764 94.293 19.5991 93.0013 19.5122L84.6794 18.9522C83.3877 18.8653 82.7343 17.9021 83.2152 16.8045L86.4686 9.3676C86.9495 8.27001 88.3837 7.44726 89.6754 7.53418Z" fill="#3E6471"/>
<path d="M103.919 8.39688L112.241 8.95688C113.532 9.0438 114.186 10.007 113.705 11.1046L110.451 18.5415C109.97 19.6391 108.536 20.4618 107.244 20.3749L98.9225 19.8149C97.6309 19.728 96.9775 18.7648 97.4583 17.6672L100.712 10.2303C101.193 9.13272 102.627 8.30996 103.919 8.39688Z" fill="#3E6471"/>
<path d="M27.2526 16.5625L35.5745 17.1225C36.8662 17.2094 37.5195 18.1726 37.0387 19.2702L33.7852 26.7071C33.3044 27.8047 31.8701 28.6274 30.5785 28.5405L22.2565 27.9805C20.9649 27.8936 20.3115 26.9303 20.7923 25.8327L24.0458 18.3959C24.5266 17.2983 25.9609 16.4755 27.2526 16.5625Z" fill="#3E6471"/>
<path d="M41.4957 17.4252L49.8177 17.9852C51.1093 18.0721 51.7627 19.0353 51.2819 20.1329L48.0284 27.5698C47.5476 28.6674 46.1133 29.4901 44.8216 29.4032L36.4997 28.8432C35.208 28.7563 34.5547 27.793 35.0355 26.6954L38.289 19.2586C38.7698 18.161 40.2041 17.3382 41.4957 17.4252Z" fill="#3E6471"/>
<path d="M55.7389 18.2879L64.0608 18.8479C65.3525 18.9348 66.0059 19.898 65.525 20.9956L62.2716 28.4325C61.7907 29.5301 60.3565 30.3528 59.0648 30.2659L50.7429 29.7059C49.4512 29.619 48.7978 28.6557 49.2787 27.5581L52.5321 20.1213C53.0129 19.0237 54.4472 18.2009 55.7389 18.2879Z" fill="#3E6471"/>
<path d="M69.9772 19.1502L78.2991 19.7102C79.5908 19.7972 80.2441 20.7604 79.7633 21.858L76.5098 29.2949C76.029 30.3924 74.5947 31.2152 73.3031 31.1283L64.9811 30.5683C63.6895 30.4813 63.0361 29.5181 63.5169 28.4205L66.7704 20.9837C67.2512 19.8861 68.6855 19.0633 69.9772 19.1502Z" fill="#3E6471"/>
<path d="M84.2203 20.0129L92.5423 20.5729C93.8339 20.6599 94.4873 21.6231 94.0065 22.7207L90.753 30.1576C90.2722 31.2551 88.8379 32.0779 87.5462 31.991L79.2243 31.431C77.9326 31.3441 77.2793 30.3808 77.7601 29.2832L81.0136 21.8464C81.4944 20.7488 82.9287 19.926 84.2203 20.0129Z" fill="#3E6471"/>
<path d="M98.4654 20.8709L106.787 21.4309C108.079 21.5178 108.732 22.4811 108.252 23.5787L104.998 31.0155C104.517 32.1131 103.083 32.9359 101.791 32.849L93.4694 32.289C92.1777 32.202 91.5244 31.2388 92.0052 30.1412L95.2587 22.7043C95.7395 21.6068 97.1738 20.784 98.4654 20.8709Z" fill="#3E6471"/>
<path d="M21.7975 29.0413L30.1194 29.6013C31.4111 29.6882 32.0644 30.6514 31.5836 31.749L28.3302 39.1859C27.8493 40.2835 26.415 41.1062 25.1234 41.0193L16.8014 40.4593C15.5098 40.3724 14.8564 39.4091 15.3372 38.3116L18.5907 30.8747C19.0715 29.7771 20.5058 28.9544 21.7975 29.0413Z" fill="#3E6471"/>
<path d="M36.0406 29.8992L44.3626 30.4592C45.6543 30.5461 46.3076 31.5094 45.8268 32.607L42.5733 40.0438C42.0925 41.1414 40.6582 41.9642 39.3665 41.8772L31.0446 41.3172C29.7529 41.2303 29.0996 40.2671 29.5804 39.1695L32.8339 31.7326C33.3147 30.635 34.749 29.8123 36.0406 29.8992Z" fill="#3E6471"/>
<path d="M50.2799 30.7617L58.6018 31.3217C59.8935 31.4086 60.5469 32.3718 60.066 33.4694L56.8126 40.9063C56.3317 42.0039 54.8975 42.8266 53.6058 42.7397L45.2839 42.1797C43.9922 42.0928 43.3388 41.1295 43.8197 40.032L47.0731 32.5951C47.554 31.4975 48.9882 30.6747 50.2799 30.7617Z" fill="#3E6471"/>
<path d="M64.5231 31.6243L72.845 32.1843C74.1367 32.2712 74.79 33.2345 74.3092 34.332L71.0557 41.7689C70.5749 42.8665 69.1406 43.6892 67.849 43.6023L59.527 43.0423C58.2354 42.9554 57.582 41.9922 58.0628 40.8946L61.3163 33.4577C61.7971 32.3601 63.2314 31.5374 64.5231 31.6243Z" fill="#3E6471"/>
<path d="M78.7662 32.487L87.0882 33.047C88.3798 33.1339 89.0332 34.0972 88.5524 35.1947L85.2989 42.6316C84.8181 43.7292 83.3838 44.552 82.0921 44.465L73.7702 43.905C72.4785 43.8181 71.8252 42.8549 72.306 41.7573L75.5595 34.3204C76.0403 33.2228 77.4746 32.4001 78.7662 32.487Z" fill="#3E6471"/>
<path d="M93.0055 33.3494L101.327 33.9094C102.619 33.9963 103.272 34.9596 102.792 36.0572L99.5382 43.494C99.0573 44.5916 97.6231 45.4144 96.3314 45.3275L88.0095 44.7675C86.7178 44.6805 86.0644 43.7173 86.5453 42.6197L89.7987 35.1828C90.2796 34.0853 91.7138 33.2625 93.0055 33.3494Z" fill="#3E6471"/>
<path d="M9.88087 50.7854C9.40004 51.883 10.0582 52.8466 11.3451 52.9332L19.667 53.4932C20.9587 53.5801 22.3929 52.7573 22.8738 51.6598L25.0186 46.7529C20.8804 46.0627 16.7601 45.321 12.6592 44.4322L9.88087 50.7854Z" fill="#22241E"/>
<path d="M24.6619 42.0751L16.34 41.5151C15.0483 41.4282 13.614 42.2509 13.1332 43.3485L12.6581 44.4321C16.759 45.3209 20.8793 46.0626 25.0174 46.7528L26.1261 44.2228C26.6069 43.1253 25.9488 42.1617 24.6619 42.0751Z" fill="#3E6471"/>
<path d="M38.9009 42.9375L30.579 42.3775C29.2873 42.2906 27.853 43.1134 27.3722 44.2109L26.1728 46.9503C30.3212 47.6316 34.486 48.2806 38.6563 48.9921L40.3651 45.0853C40.8459 43.9877 40.1878 43.0241 38.9009 42.9375Z" fill="#3E6471"/>
<path d="M24.124 51.6481C23.6431 52.7457 24.3013 53.7093 25.5882 53.7959L33.9101 54.3559C35.2018 54.4428 36.636 53.62 37.1169 52.5225L38.6615 48.9924C34.496 48.2812 30.3312 47.6323 26.1781 46.9506L24.1236 51.6529L24.124 51.6481Z" fill="#22241E"/>
<path d="M38.3628 52.5058C37.8819 53.6033 38.5401 54.5669 39.827 54.6535L48.1489 55.2135C49.4406 55.3004 50.8748 54.4777 51.3557 53.3801L52.1086 51.6544C48.0125 50.6941 43.91 49.901 39.8116 49.1895L38.3577 52.5102L38.3628 52.5058Z" fill="#22241E"/>
<path d="M53.1454 43.7955L44.8235 43.2355C43.5318 43.1486 42.0975 43.9713 41.6167 45.0689L39.8168 49.1898C43.9153 49.9013 48.0178 50.6945 52.1138 51.6548L54.6144 45.9435C55.0952 44.846 54.4371 43.8824 53.1502 43.7958L53.1454 43.7955Z" fill="#3E6471"/>
<path d="M67.3879 44.6582L59.066 44.0982C57.7743 44.0112 56.3401 44.834 55.8592 45.9316L53.2397 51.9173C54.2338 52.1566 55.2222 52.4098 56.2147 52.6729C59.0657 53.7074 62.5487 53.8891 65.9844 53.3495L68.8477 46.8008C69.3285 45.7032 68.6704 44.7397 67.3835 44.6531L67.3879 44.6582Z" fill="#3E6471"/>
<path d="M56.2146 52.6777C55.2221 52.4146 54.2337 52.1613 53.2395 51.9221L52.6056 53.3732C52.1248 54.4708 52.7829 55.4344 54.0698 55.521L62.3918 56.081C63.6834 56.1679 65.1177 55.3451 65.5985 54.2475L65.9887 53.3593C62.553 53.899 59.0653 53.7169 56.2191 52.6827L56.2146 52.6777Z" fill="#22241E"/>
<path d="M82.1116 49.9102L83.0908 47.6683C83.5716 46.5707 82.9135 45.6072 81.6266 45.5206L73.3046 44.9606C72.013 44.8736 70.5787 45.6964 70.0979 46.794L67.3367 53.1053C67.7594 53.0141 68.1824 52.918 68.6019 52.8026C73.2319 51.448 77.7124 50.5382 82.1068 49.9098L82.1116 49.9102Z" fill="#3E6471"/>
<path d="M68.6062 52.8029C68.187 52.9136 67.7637 53.0144 67.341 53.1056L66.8484 54.2359C66.3676 55.3335 67.0257 56.2971 68.3126 56.3837L76.6346 56.9437C77.9262 57.0306 79.3605 56.2078 79.8413 55.1102L82.1156 49.9152C77.7212 50.5436 73.2407 51.4534 68.6107 52.808L68.6062 52.8029Z" fill="#22241E"/>
<path d="M97.3341 48.531C97.8149 47.4334 97.1568 46.4699 95.8699 46.3833L87.5479 45.8233C86.2562 45.7364 84.822 46.5591 84.3411 47.6567L83.4355 49.7311C88.1159 49.122 92.7043 48.8132 97.2946 48.6193L97.3341 48.531Z" fill="#3E6471"/>
<path d="M83.4364 49.7312L81.0886 55.0936C80.6078 56.1912 81.2659 57.1547 82.5528 57.2413L90.8747 57.8013C92.1664 57.8883 93.6007 57.0655 94.0815 55.9679L97.2955 48.6194C92.7053 48.8132 88.1121 49.1217 83.4364 49.7312Z" fill="#22241E"/>
<path d="M10.8816 53.9889L19.2035 54.5489C20.4952 54.6358 21.1485 55.599 20.6677 56.6966L17.4143 64.1335C16.9334 65.2311 15.4992 66.0538 14.2075 65.9669L5.89031 65.4072C4.59865 65.3203 3.94528 64.3571 4.42611 63.2595L7.67958 55.8226C8.16041 54.725 9.59468 53.9023 10.8863 53.9892L10.8816 53.9889Z" fill="#22241E"/>
<path d="M25.1246 54.8516L33.4466 55.4116C34.7382 55.4985 35.3916 56.4617 34.9108 57.5593L31.6573 64.9962C31.1765 66.0938 29.7422 66.9165 28.4505 66.8296L20.1286 66.2696C18.8369 66.1827 18.1836 65.2194 18.6644 64.1219L21.9179 56.685C22.3987 55.5874 23.833 54.7646 25.1246 54.8516Z" fill="#22241E"/>
<path d="M39.3688 55.7143L47.6907 56.2743C48.9824 56.3612 49.6357 57.3245 49.1549 58.4221L45.9014 65.8589C45.4206 66.9565 43.9863 67.7793 42.6947 67.6924L34.3727 67.1324C33.0811 67.0454 32.4277 66.0822 32.9085 64.9846L36.162 57.5477C36.6428 56.4502 38.0771 55.6274 39.3688 55.7143Z" fill="#22241E"/>
<path d="M53.6061 56.5719L61.928 57.1319C63.2197 57.2188 63.873 58.182 63.3922 59.2796L60.1387 66.7165C59.6579 67.8141 58.2236 68.6368 56.932 68.5499L48.61 67.9899C47.3184 67.903 46.665 66.9398 47.1458 65.8422L50.3993 58.4053C50.8801 57.3077 52.3144 56.485 53.6061 56.5719Z" fill="#22241E"/>
<path d="M67.8502 57.4346L76.1722 57.9946C77.4638 58.0816 78.1172 59.0448 77.6364 60.1424L74.3829 67.5793C73.9021 68.6768 72.4678 69.4996 71.1761 69.4127L62.8542 68.8527C61.5625 68.7657 60.9092 67.8025 61.39 66.7049L64.6434 59.2681C65.1243 58.1705 66.5586 57.3477 67.8502 57.4346Z" fill="#22241E"/>
<path d="M82.0934 58.2973L90.4153 58.8573C91.707 58.9443 92.3603 59.9075 91.8795 61.0051L88.626 68.442C88.1452 69.5395 86.711 70.3623 85.4193 70.2754L77.0973 69.7154C75.8057 69.6284 75.1523 68.6652 75.6331 67.5676L78.8866 60.1308C79.3674 59.0332 80.8017 58.2104 82.0934 58.2973Z" fill="#22241E"/>
</g>
<defs>
<clipPath id="clip0_107_1115">
<rect width="125.145" height="68.4506" fill="white" transform="translate(5.0498 0.000976562) rotate(3.84976)"/>
</clipPath>
</defs>
</svg>
