<?xml version="1.0" encoding="UTF-8"?>
<svg id="Laag_2" data-name="Laag 2" xmlns="http://www.w3.org/2000/svg" viewBox="0 0 219.49 202.45">
  <defs>
    <style>
      .cls-1 {
        fill: #11a3dd;
      }

      .cls-1, .cls-2, .cls-3, .cls-4, .cls-5, .cls-6, .cls-7, .cls-8 {
        stroke-width: 0px;
      }

      .cls-2 {
        fill: #26364e;
      }

      .cls-3 {
        fill: #fff;
      }

      .cls-9 {
        opacity: .1;
      }

      .cls-4 {
        fill: #314563;
      }

      .cls-5 {
        fill: #212e44;
      }

      .cls-6 {
        fill: #415343;
      }

      .cls-7 {
        fill: #0b140e;
      }

      .cls-10 {
        opacity: .3;
        stroke: #0b140e;
        stroke-width: 5px;
      }

      .cls-10, .cls-11 {
        fill: none;
        stroke-miterlimit: 10;
      }

      .cls-8 {
        fill: #148bbb;
      }

      .cls-11 {
        stroke: #b2e0f7;
        stroke-linecap: square;
        stroke-width: 12px;
      }
    </style>
  </defs>
  <g id="Laag_2-2" data-name="Laag 2">
    <path class="cls-11" d="M159.04,185.85v-23.48c0-3.3,2.68-5.98,5.98-5.98h42.48c3.3,0,5.98,2.68,5.98,5.98v4.55"/>
    <g>
      <path class="cls-6" d="M179.26,201.96H22.24c-7.73-22.3-16.78-56.77-16.85-99.57C5.31,59.04,14.46,24.17,22.24,1.74h157.02c8.24,20.31,18.77,53.39,19.53,95.28.85,46.93-10.94,83.76-19.53,104.94Z"/>
      <rect class="cls-7" x="11.28" y="190.47" width="176.55" height="11.98" rx="5.43" ry="5.43"/>
      <rect class="cls-7" x="11.28" y="0" width="176.55" height="12.08" rx="6.04" ry="6.04"/>
      <path class="cls-10" d="M125.79,12.08c4.51,24.43,8.09,54.15,8.21,88.01.13,35.38-3.56,66.33-8.21,91.53"/>
      <path class="cls-10" d="M148.03,12.08c4.51,24.43,8.09,54.15,8.21,88.01.13,35.38-3.56,66.33-8.21,91.53"/>
      <path class="cls-10" d="M170.26,12.08c4.51,24.43,8.09,54.15,8.21,88.01.13,35.38-3.56,66.33-8.21,91.53"/>
      <path class="cls-10" d="M77.49,12.08c-4.51,24.43-8.09,54.15-8.21,88.01-.13,35.38,3.56,66.33,8.21,91.53"/>
      <path class="cls-10" d="M55.26,12.08c-4.51,24.43-8.09,54.15-8.21,88.01-.13,35.38,3.56,66.33,8.21,91.53"/>
      <path class="cls-10" d="M32.02,12.08c-4.51,24.43-8.09,54.15-8.21,88.01-.13,35.38,3.56,66.33,8.21,91.53"/>
      <line class="cls-10" x1="101.11" y1="10.47" x2="101.11" y2="196.21"/>
    </g>
    <rect class="cls-4" x="1.92" y="94.31" width="200.46" height="14.2" rx="4.48" ry="4.48"/>
    <circle class="cls-5" cx="101.8" cy="101.6" r="3.79"/>
    <circle class="cls-5" cx="134.47" cy="101.6" r="3.79"/>
    <circle class="cls-5" cx="167.14" cy="101.6" r="3.79"/>
    <circle class="cls-5" cx="199.81" cy="101.6" r="3.79"/>
    <circle class="cls-5" cx="3.79" cy="101.6" r="3.79"/>
    <circle class="cls-5" cx="36.46" cy="101.6" r="3.79"/>
    <polygon class="cls-2" points="121.31 84.89 80.9 80.88 85.25 41.61 121.31 40.47 121.31 84.89"/>
    <circle class="cls-5" cx="69.13" cy="101.6" r="3.79"/>
    <polygon class="cls-4" points="119.11 82.47 83.11 78.89 86.98 43.91 119.11 42.89 119.11 82.47"/>
    <circle class="cls-5" cx="89.15" cy="46.2" r="1.29"/>
    <circle class="cls-5" cx="116.97" cy="45.15" r="1.29"/>
    <circle class="cls-5" cx="85.52" cy="77.03" r="1.29"/>
    <circle class="cls-5" cx="116.97" cy="80.33" r="1.29"/>
    <path class="cls-8" d="M110.06,66.25h0c0,.16,0,.31-.01.47h0c-.25,5.08-4.55,9.11-9.81,9.11-.19,0-.39,0-.58-.02-6.73-.38-9.89-8.34-5.43-13.26,1.44-1.6,3.01-3.58,4.11-5.68,1.18-2.22,1.84-4.58,1.32-6.76-.11-.46.48-.75.8-.4,2.73,3.02,7,8.18,8.79,12.74.35.91.61,1.8.74,2.64,0,.07.01.13.02.2.03.32.05.64.05.97Z"/>
    <path class="cls-1" d="M108.7,66.43h0c0,.13,0,.25,0,.38h0c-.2,4.12-3.59,7.37-7.74,7.37-.15,0-.3,0-.46-.01-5.31-.31-7.8-6.75-4.28-10.74,1.14-1.29,2.37-2.9,3.24-4.6.93-1.8,1.45-3.71,1.04-5.47-.09-.37.38-.61.63-.33,2.15,2.44,5.52,6.62,6.93,10.32.28.74.48,1.45.58,2.13,0,.05,0,.11.02.16.02.26.04.52.04.79Z"/>
    <g class="cls-9">
      <path class="cls-3" d="M101.33,71.88c1.44-1.94,2.89-3.31,4.89-4.67.53,2.7-2.26,5.3-4.89,4.67h0Z"/>
    </g>
  </g>
</svg>