<?xml version="1.0" encoding="UTF-8"?>
<svg id="Laag_2" data-name="Laag 2" xmlns="http://www.w3.org/2000/svg" viewBox="0 0 223.86 173.04">
  <defs>
    <style>
      .cls-1 {
        fill: #d6b692;
      }

      .cls-1, .cls-2, .cls-3, .cls-4, .cls-5, .cls-6, .cls-7, .cls-8 {
        stroke-width: 0px;
      }

      .cls-2 {
        fill: #f2cfc2;
      }

      .cls-9 {
        stroke: #db5542;
      }

      .cls-9, .cls-5, .cls-10 {
        fill: #fff;
      }

      .cls-9, .cls-10 {
        stroke-linejoin: round;
        stroke-width: 2px;
      }

      .cls-3 {
        fill: #336f59;
      }

      .cls-4 {
        fill: #be8b80;
      }

      .cls-6 {
        fill: #6b7b83;
      }

      .cls-10 {
        stroke: #1d1d1b;
      }

      .cls-7 {
        fill: #1d1d1b;
      }

      .cls-8 {
        fill: #4d3329;
      }
    </style>
  </defs>
  <g id="Laag_2-2" data-name="Laag 2">
    <polygon class="cls-8" points="19.01 143.45 218.34 139.7 223.86 3.52 10.74 0 19.01 143.45"/>
    <rect class="cls-3" x="26.61" y="10.8" width="184.07" height="120.87"/>
    <rect class="cls-2" x="21.94" y="93.7" width="25.02" height="10.47"/>
    <path class="cls-7" d="M28.16,104.16h14.8c15.54,0,28.16,12.62,28.16,28.16v31.09c0,5.31-4.31,9.63-9.63,9.63H9.63C4.31,173.04,0,168.72,0,163.41v-31.09C0,116.78,12.62,104.16,28.16,104.16Z"/>
    <path class="cls-7" d="M75.96,144.27h-10.92v-8.02h10.92c.91,0,1.64-.74,1.64-1.64v-21.03h8.02v21.03c0,5.33-4.33,9.66-9.66,9.66Z"/>
    <path class="cls-2" d="M80.19,101.2c-.08.53-.55.95-1.11.95s-1.03-.41-1.12-.94c.06,0,.12-.01.19-.01h2.04Z"/>
    <path class="cls-2" d="M80.21,95.26v5.76c0,.06,0,.12-.02.18-.08.53-.55.95-1.11.95s-1.03-.41-1.12-.94c-.01-.06-.02-.13-.02-.19v-5.76c0-.62.5-1.13,1.13-1.13s1.13.51,1.13,1.13Z"/>
    <path class="cls-2" d="M79.07,106.7l-3.14-2c-.53-.34-.69-1.04-.35-1.56.22-.33.59-.52.96-.52.21,0,.42.06.61.18l1.56.99.36,2.91Z"/>
    <path class="cls-2" d="M86.81,101.67v2.85c0,.15,0,.3-.03.45l-.2,1.58-.5,4.1c-.12.94-.92,1.64-1.86,1.64h-5.15c-.95,0-1.75-.7-1.86-1.64l-.41-3.28-.36-2.91-.14-1.18c-.13-1.05.64-1.98,1.67-2.08.09.53.55.94,1.12.94s1.03-.42,1.11-.95h.02v-.06c0-.47.28-.91.73-1.06.8-.28,1.54.31,1.54,1.06,0-.62.51-1.13,1.13-1.13.46,0,.85.81,1.03,1.2.18-.39.58-.66,1.03-.66.63,0,1.13.51,1.13,1.13Z"/>
    <path class="cls-1" d="M79.02,94.6h0c.38,0,.69.31.69.69v.69h-1.39v-.69c0-.38.31-.69.69-.69Z"/>
    <rect class="cls-6" x="76.09" y="111.97" width="11.05" height="3.21" rx="1.6" ry="1.6"/>
    <path class="cls-2" d="M28.55,36.89h11.8c10.71,0,19.41,8.7,19.41,19.41v25.04c0,7.15-5.8,12.95-12.95,12.95h-24.72c-7.15,0-12.95-5.8-12.95-12.95v-25.04c0-10.71,8.7-19.41,19.41-19.41Z"/>
    <path class="cls-7" d="M9.14,61.14S-12.21,25.27,34.45,25.65s25.31,33.06,25.31,33.06l-5.32-16.6-.89,5.49-10.09-9.45-12.13,6.64-.13-6.13-6,6.89-4.6-5.87-11.47,21.45Z"/>
    <path class="cls-9" d="M24.75,76.54h19.4c0,4.51-3.66,8.17-8.17,8.17h-3.06c-4.51,0-8.17-3.66-8.17-8.17h0Z"/>
    <rect class="cls-5" x="41.35" y="51.1" width="10.34" height="12.7" rx="5.17" ry="5.17"/>
    <rect class="cls-5" x="17.55" y="51.1" width="10.34" height="12.7" rx="5.17" ry="5.17"/>
    <path class="cls-4" d="M38.65,68.06c0,2.02-1.64,3.67-3.67,3.67-.97,0-1.86-.38-2.51-1,.17.03.36.04.54.04,2.03,0,3.67-1.64,3.67-3.67,0-1.05-.44-2-1.15-2.67,1.77.27,3.12,1.79,3.12,3.63Z"/>
    <circle class="cls-10" cx="21.44" cy="58.65" r=".89"/>
    <circle class="cls-10" cx="45.19" cy="58.65" r=".89"/>
    <circle class="cls-5" cx="21.4" cy="59.46" r=".45"/>
    <circle class="cls-5" cx="22.35" cy="59.03" r=".28"/>
    <circle class="cls-5" cx="44.8" cy="59.44" r=".45"/>
    <circle class="cls-5" cx="45.75" cy="59.02" r=".28"/>
    <path class="cls-4" d="M42.6,51.43s3.69-3.54,9.64,0c0,0-3.6-3.73-8.25-2.92s-1.39,2.92-1.39,2.92Z"/>
    <path class="cls-4" d="M27.19,51.78s-3.69-3.54-9.64,0c0,0,3.6-3.73,8.25-2.92s1.39,2.92,1.39,2.92Z"/>
  </g>
</svg>