<?xml version="1.0" encoding="UTF-8"?>
<svg id="Laag_2" data-name="Laag 2" xmlns="http://www.w3.org/2000/svg" xmlns:xlink="http://www.w3.org/1999/xlink" viewBox="0 0 314.04 213.51">
  <defs>
    <style>
      .cls-1 {
        fill: #884317;
      }

      .cls-1, .cls-2, .cls-3, .cls-4, .cls-5, .cls-6, .cls-7, .cls-8 {
        stroke-width: 0px;
      }

      .cls-2 {
        fill: #332a1d;
      }

      .cls-3 {
        fill: url(#Naamloos_verloop_46-2);
      }

      .cls-4 {
        fill: #a95120;
      }

      .cls-5 {
        fill: url(#Naamloos_verloop_46-3);
      }

      .cls-6 {
        fill: #0e762f;
      }

      .cls-7 {
        fill: #6f3710;
      }

      .cls-8 {
        fill: url(#Naamloos_verloop_46);
      }

      .cls-9 {
        fill: none;
        stroke: #0b843a;
        stroke-miterlimit: 10;
      }
    </style>
    <linearGradient id="Naamloos_verloop_46" data-name="Naamloos verloop 46" x1="157.65" y1="171.38" x2="157.27" y2="132.32" gradientUnits="userSpaceOnUse">
      <stop offset="0" stop-color="#332a1d"/>
      <stop offset="1" stop-color="#2a2216"/>
    </linearGradient>
    <linearGradient id="Naamloos_verloop_46-2" data-name="Naamloos verloop 46" x1="157.61" y1="125.26" x2="157.61" y2="81.77" xlink:href="#Naamloos_verloop_46"/>
    <linearGradient id="Naamloos_verloop_46-3" data-name="Naamloos verloop 46" x1="157.88" y1="104.66" x2="156.38" y2=".15" xlink:href="#Naamloos_verloop_46"/>
  </defs>
  <g id="Laag_2-2" data-name="Laag 2">
    <polygon class="cls-1" points="279.81 65.93 265.91 65.75 259.32 50.02 252.19 33 252.19 0 276.32 57.61 279.81 65.93"/>
    <polygon class="cls-6" points="314.04 180.64 314.04 213.51 300.27 180.64 269.22 106.51 269.21 106.51 263.15 92.02 263.14 92.02 252.19 65.87 252.19 33 259.32 50.02 265.91 65.75 280.44 100.44 283.06 106.69 314.04 180.64"/>
    <path class="cls-1" d="M61.85,0v65.87L13.77,180.64,0,213.51v-65.87L35.56,62.77l13.13.17,6.09-14.71c-4.97,1.57-10.2,3.57-15.69,6.1L61.85,0Z"/>
    <rect class="cls-7" x="61.08" width="191.11" height="66.06"/>
    <polygon class="cls-2" points="314.04 180.64 0 180.64 48.69 62.94 54.78 48.23 61.08 33 252.19 33 259.32 50.02 265.91 65.75 280.44 100.44 283.06 106.69 314.04 180.64"/>
    <path class="cls-8" d="M24.12,144.06c31.36-18.63,55.76-20.75,72.38-19.15,29.69,2.86,36.52,17.77,66.26,17.62,29.65-.16,36.73-15.06,65.11-16.09,25.19-.91,46.79,9.84,62.81,21.06l-266.55-3.45Z"/>
    <rect class="cls-4" y="147.64" width="314.04" height="65.87"/>
    <polygon class="cls-1" points="314.04 147.64 300.22 147.64 283.06 106.69 280.44 100.44 265.91 65.75 279.81 65.93 314.04 147.64"/>
    <path class="cls-3" d="M283.06,106.69l-14.65-.18h-.01l-236.23-2.88,6-13.53c19.3-6.37,35.06-7,47.02-5.91,31.44,2.86,38.66,17.77,70.14,17.62,31.38-.16,38.87-15.06,68.92-16.09,13.68-.47,26.35,2.13,37.74,6.3h.01c6.54,2.38,12.66,5.29,18.3,8.42l2.77,6.25Z"/>
    <path class="cls-1" d="M54.78,48.23l-6.09,14.71-13.13-.17,3.53-8.44c5.49-2.53,10.72-4.53,15.69-6.1Z"/>
    <path class="cls-5" d="M259.32,50.02l6.59,15.73-13.72-.18-190.34-2.46-13.16-.17,6.09-14.71c2.42-.77,4.77-1.44,7.07-2.01,13.51-3.39,24.85-3.62,33.89-2.75,29.69,2.85,36.52,17.77,66.26,17.61,29.64-.15,36.72-15.05,65.1-16.08,8.83-.32,17.22.79,25.09,2.86,2.43.63,4.8,1.36,7.13,2.16Z"/>
    <path class="cls-9" d="M250.44,132c.86-3,1.72-6.01,2.38-9.06.16-.73.3-1.47.3-2.21-.03-3.17-2.72-5.69-3.51-8.76"/>
    <path class="cls-9" d="M249.54,133.44c1.7-4.97,5.8-8.68,8.51-13.18"/>
    <path class="cls-9" d="M251.28,129.41c2.51.12,4.74-1.52,6.66-3.14.34-.28.68-.57.92-.94.28-.42.4-.92.53-1.41.8-3.18,1.57-6.37,2.31-9.57"/>
    <path class="cls-9" d="M98.18,90.57c.36-1.26.72-2.53,1-3.81.07-.31.13-.62.12-.93-.01-1.34-1.14-2.39-1.48-3.69"/>
    <path class="cls-9" d="M98.64,91.17c.71-2.09,2.44-3.65,3.58-5.54"/>
    <path class="cls-9" d="M99.37,89.47c1.62.08,3.05-.98,4.29-2.02.22-.18.44-.37.59-.61.18-.27.26-.59.34-.91.52-2.05,1.01-4.1,1.49-6.16"/>
    <path class="cls-9" d="M217.42,56.67c-.37-2.18.41-4.37.51-6.58"/>
    <path class="cls-9" d="M217.26,54.83c1.46-.7,2.22-2.31,2.81-3.82.1-.26.21-.53.23-.81.03-.32-.05-.65-.13-.96-.52-2.05-1.06-4.09-1.62-6.13"/>
  </g>
</svg>