<?xml version="1.0" encoding="UTF-8"?>
<svg id="Laag_2" data-name="Laag 2" xmlns="http://www.w3.org/2000/svg" viewBox="0 0 241.54 228.12">
  <defs>
    <style>
      .cls-1 {
        fill: #281d00;
      }

      .cls-1, .cls-2, .cls-3, .cls-4, .cls-5, .cls-6, .cls-7, .cls-8, .cls-9, .cls-10, .cls-11, .cls-12, .cls-13, .cls-14, .cls-15 {
        stroke-width: 0px;
      }

      .cls-2 {
        fill: #1c4723;
      }

      .cls-3 {
        fill: #5e4a62;
      }

      .cls-16 {
        fill: none;
        stroke: #1f0200;
        stroke-miterlimit: 10;
        stroke-width: 2px;
      }

      .cls-4 {
        fill: #754408;
      }

      .cls-5 {
        fill: #967686;
      }

      .cls-6 {
        fill: #677983;
      }

      .cls-7 {
        fill: #0a8b37;
      }

      .cls-8 {
        fill: #874a1f;
      }

      .cls-9 {
        fill: #ffd437;
      }

      .cls-10 {
        fill: #1f0200;
      }

      .cls-11 {
        fill: #6f5510;
      }

      .cls-12 {
        fill: #454d20;
      }

      .cls-13 {
        fill: #5e460c;
      }

      .cls-14 {
        fill: #966e1c;
      }

      .cls-15 {
        fill: #9f771c;
      }
    </style>
  </defs>
  <g id="Laag_2-2" data-name="Laag 2">
    <g>
      <g>
        <path class="cls-7" d="M90.94,21.57c-.06,0-.11,0-.17,0-.12.42-.18.86-.18,1.31v3.41c.06,0,.11,0,.17,0h1.83c.29,0,.53-.24.53-.53v-1.83c0-1.24-.96-2.26-2.18-2.35ZM90.94,21.57c-.12.41-.19.85-.19,1.3v3.41h1.83c.29,0,.53-.24.53-.53v-1.83c0-1.24-.96-2.26-2.18-2.35Z"/>
        <path class="cls-7" d="M100.01,22.08c-.06-.54-.21-1.05-.45-1.52-.71-1.38-2.16-2.33-3.82-2.33h-.34c-1.99,0-3.69,1.25-4.35,3.01,1.35.15,2.4,1.29,2.4,2.68v1.83c0,.48-.39.86-.86.86h-1.83l-1.34,2.06h4.47c1.7,0,3.23-.69,4.35-1.8,1.11-1.11,1.8-2.65,1.8-4.35,0-.15,0-.3-.02-.45ZM97,22.57c-.83,0-1.51-.68-1.51-1.51,0-.1.08-.17.18-.17.09,0,.16.08.16.17,0,.65.53,1.17,1.18,1.17s1.18-.53,1.18-1.18c0-.09.07-.17.17-.17s.17.07.17.17c0,.83-.68,1.51-1.51,1.51Z"/>
      </g>
      <path class="cls-7" d="M93.11,23.93v1.83c0,.29-.24.53-.53.53h-1.83c-.06,0-.11,0-.17,0-.06,0-.11,0-.17-.02-1.15-.16-2.03-1.15-2.03-2.34,0-.65.26-1.24.69-1.67.39-.39.92-.65,1.51-.69.05,0,.11,0,.16,0h.01c.06,0,.11,0,.17,0,1.22.09,2.18,1.11,2.18,2.35Z"/>
      <path class="cls-7" d="M102.04,20.88l-1.12,1.19c-.07.08-.17.11-.26.11-.13,0-.25-.07-.32-.19-.01-.02-.02-.05-.03-.07-.02-.21-.06-.46-.14-.73-.09-.3-.2-.55-.3-.75,0-.03-.02-.06-.03-.09-.07-.24.11-.46.35-.46.03,0,.06,0,.09.01l1.59.38c.27.06.37.4.18.6Z"/>
    </g>
    <g>
      <g>
        <path class="cls-7" d="M188.74,12.19v1.83c0,.29.24.53.53.53h1.83c.06,0,.11,0,.17,0v-3.41c0-.45-.06-.89-.18-1.31-.06,0-.11,0-.17,0-1.22.09-2.18,1.11-2.18,2.35ZM188.74,12.19v1.83c0,.29.24.53.53.53h1.83s0-3.41,0-3.41c0-.45-.06-.89-.19-1.3-1.22.09-2.18,1.11-2.18,2.35Z"/>
        <path class="cls-7" d="M181.82,10.8c0,1.7.69,3.23,1.8,4.35,1.11,1.11,2.65,1.8,4.35,1.8h4.47s-1.34-2.06-1.34-2.06h-1.83c-.48,0-.86-.39-.86-.86v-1.83c0-1.39,1.05-2.53,2.4-2.68-.66-1.76-2.36-3.01-4.35-3.01h-.34c-1.66,0-3.11.95-3.82,2.33-.24.46-.4.97-.45,1.52-.02.15-.02.3-.02.45ZM183.34,9.32c0-.09.08-.17.17-.17s.17.07.17.17c0,.65.53,1.18,1.18,1.18s1.17-.52,1.18-1.17c0-.09.07-.17.16-.17.1,0,.18.07.18.17,0,.83-.68,1.51-1.51,1.51s-1.51-.68-1.51-1.51Z"/>
      </g>
      <path class="cls-7" d="M188.74,12.19v1.83c0,.29.24.53.53.53h1.83c.06,0,.11,0,.17,0,.06,0,.11,0,.17-.02,1.15-.16,2.03-1.15,2.03-2.34,0-.65-.26-1.24-.69-1.67-.39-.39-.92-.65-1.51-.69-.05,0-.11,0-.16,0h-.01c-.06,0-.11,0-.17,0-1.22.09-2.18,1.11-2.18,2.35Z"/>
      <path class="cls-7" d="M179.82,9.14l1.12,1.19c.07.08.17.11.26.11.13,0,.25-.07.32-.19.01-.02.02-.05.03-.07.02-.21.06-.46.14-.73.09-.3.2-.55.3-.75,0-.03.02-.06.03-.09.07-.24-.11-.46-.35-.46-.03,0-.06,0-.09.01l-1.59.38c-.27.06-.37.4-.18.6Z"/>
    </g>
    <circle class="cls-9" cx="144.28" cy="38.36" r="15.43"/>
    <g>
      <rect class="cls-9" x="141.98" y="57.25" width="4.28" height="19.47" rx="2.14" ry="2.14" transform="translate(287.86 134.79) rotate(-179.68)"/>
      <rect class="cls-9" x="121.79" y="48.75" width="4.28" height="19.47" rx="2.14" ry="2.14" transform="translate(169.47 187.74) rotate(-134.68)"/>
      <rect class="cls-9" x="113.52" y="28.46" width="4.28" height="19.47" rx="2.14" ry="2.14" transform="translate(76.81 153.64) rotate(-89.68)"/>
      <rect class="cls-9" x="122.02" y="8.27" width="4.28" height="19.47" rx="2.14" ry="2.14" transform="translate(23.21 92.5) rotate(-44.68)"/>
      <rect class="cls-9" x="142.31" y="0" width="4.28" height="19.47" rx="2.14" ry="2.14" transform="translate(.06 -.82) rotate(.32)"/>
      <rect class="cls-9" x="162.5" y="8.5" width="4.28" height="19.47" rx="2.14" ry="2.14" transform="translate(61.85 -111.66) rotate(45.32)"/>
      <rect class="cls-9" x="170.77" y="28.79" width="4.28" height="19.47" rx="2.14" ry="2.14" transform="translate(212.41 -134.17) rotate(90.32)"/>
      <rect class="cls-9" x="162.27" y="48.98" width="4.28" height="19.47" rx="2.14" ry="2.14" transform="translate(322.61 -15.12) rotate(135.32)"/>
    </g>
    <path class="cls-2" d="M241.54,44.04v184.08H0V53.49c43.9-27.17,71.85-26.51,89.37-20.68,14.69,4.88,25.88,14.67,39.2,18.34.78.21,1.56.41,2.35.58.53.11,1.07.22,1.62.31,1.86.32,3.77.51,5.74.54h.01c1.91.03,3.87-.08,5.9-.37.53-.07,1.06-.16,1.6-.26,4.28-.78,7.48-2.06,10.27-3.63,3.97-2.21,7.11-5,11.33-7.7,2.3-1.47,4.92-2.91,8.18-4.22.45-.18.9-.36,1.37-.53,12.62-4.69,32.91-6.86,64.6,8.17Z"/>
    <path class="cls-1" d="M110.73,138.43h-50.91c-9.17,28.75-18.33,57.5-27.5,86.25,17.78.12,35.56.24,53.34.36l25.07-86.62Z"/>
    <g>
      <polygon class="cls-15" points="178.04 228.12 98.65 228.12 100.98 216.06 101.96 210.89 104.47 197.89 105.37 193.18 107.66 181.32 108.48 177.01 110.58 166.12 111.35 162.16 113.27 152.14 113.98 148.49 115.76 139.23 116.41 135.86 118.06 127.29 118.66 124.16 120.19 116.19 120.75 113.28 122.18 105.87 122.7 103.15 124.03 96.22 124.52 93.68 125.77 87.21 126.23 84.83 127.4 78.75 127.83 76.52 128.93 70.81 129.33 68.71 130.37 63.34 130.74 61.36 131.72 56.29 132.08 54.43 133 49.64 143.69 49.64 144.61 54.43 144.97 56.29 145.95 61.36 146.33 63.34 147.36 68.71 147.76 70.81 148.87 76.52 149.29 78.75 150.46 84.83 150.92 87.21 152.17 93.68 152.66 96.22 153.99 103.15 154.51 105.87 155.94 113.28 156.5 116.19 158.03 124.16 158.64 127.29 160.28 135.86 160.93 139.23 162.71 148.49 163.42 152.14 165.34 162.16 166.11 166.12 168.21 177.01 169.03 181.32 171.32 193.18 172.22 197.89 174.73 210.89 175.71 216.06 178.04 228.12"/>
      <polygon class="cls-11" points="144.61 54.43 132.08 54.43 133 49.64 143.69 49.64 144.61 54.43"/>
      <polygon class="cls-11" points="145.95 61.36 130.74 61.36 131.72 56.29 144.97 56.29 145.95 61.36"/>
      <polygon class="cls-11" points="147.36 68.71 129.33 68.71 130.37 63.34 146.33 63.34 147.36 68.71"/>
      <polygon class="cls-11" points="148.87 76.52 127.83 76.52 128.93 70.81 147.76 70.81 148.87 76.52"/>
      <polygon class="cls-11" points="150.46 84.83 126.23 84.83 127.4 78.75 149.29 78.75 150.46 84.83"/>
      <polygon class="cls-11" points="152.17 93.68 124.52 93.68 125.77 87.21 150.92 87.21 152.17 93.68"/>
      <polygon class="cls-11" points="153.99 103.15 122.7 103.15 124.03 96.22 152.66 96.22 153.99 103.15"/>
      <polygon class="cls-11" points="155.94 113.28 120.75 113.28 122.18 105.87 154.51 105.87 155.94 113.28"/>
      <polygon class="cls-11" points="158.03 124.16 118.66 124.16 120.19 116.19 156.5 116.19 158.03 124.16"/>
      <polygon class="cls-11" points="160.28 135.86 116.41 135.86 118.06 127.29 158.64 127.29 160.28 135.86"/>
      <polygon class="cls-11" points="162.71 148.49 113.98 148.49 115.76 139.23 160.93 139.23 162.71 148.49"/>
      <polygon class="cls-11" points="165.34 162.16 111.35 162.16 113.27 152.14 163.42 152.14 165.34 162.16"/>
      <polygon class="cls-11" points="168.21 177.01 108.48 177.01 110.58 166.12 166.11 166.12 168.21 177.01"/>
      <polygon class="cls-11" points="171.32 193.18 105.37 193.18 107.66 181.32 169.03 181.32 171.32 193.18"/>
      <polygon class="cls-11" points="174.73 210.89 101.96 210.89 104.47 197.89 172.22 197.89 174.73 210.89"/>
      <polygon class="cls-11" points="178.04 228.12 98.65 228.12 100.98 216.06 175.71 216.06 178.04 228.12"/>
    </g>
    <polygon class="cls-5" points="102.31 141.41 79.52 220.14 38.72 220.14 31.67 210.84 72.47 210.84 92.57 141.41 95.26 132.11 102.31 141.41"/>
    <polygon class="cls-3" points="72.47 210.84 79.52 220.14 38.72 220.14 31.67 210.84 72.47 210.84"/>
    <g>
      <polygon class="cls-12" points="95.26 132.11 92.57 141.41 72.47 210.84 31.67 210.84 54.45 132.11 95.26 132.11"/>
      <path class="cls-10" d="M53.7,131.11l-23.36,80.73h42.88s21.25-73.41,21.25-73.41l1.54-5.33.58-1.99h-42.89ZM33,209.84l22.2-76.73h38.73l-1.54,5.32-20.67,71.41h-38.72Z"/>
    </g>
    <path class="cls-1" d="M121.43,67.07h-30.73c-5.53,17.35-11.06,34.71-16.6,52.06,10.73.07,21.46.15,32.19.22l15.13-52.28Z"/>
    <polygon class="cls-8" points="116.35 68.86 102.59 116.38 77.97 116.38 73.71 110.77 98.34 110.77 110.47 68.86 112.09 63.25 116.35 68.86"/>
    <polygon class="cls-4" points="98.34 110.77 102.59 116.38 77.97 116.38 73.71 110.77 98.34 110.77"/>
    <g>
      <polygon class="cls-12" points="112.09 63.25 110.47 68.86 98.34 110.77 73.71 110.77 87.46 63.25 112.09 63.25"/>
      <path class="cls-10" d="M86.71,62.24l-14.33,49.52h26.71s12.94-44.7,12.94-44.7l.81-2.83.58-1.99h-26.71ZM109.94,67.06l-12.36,42.7h-22.54l13.17-45.52h22.55l-.82,2.82Z"/>
    </g>
    <path class="cls-1" d="M241.54,205.14v17.7c-15.9.11-31.81.21-47.71.32l-25.07-86.61h50.91c7.29,22.86,14.58,45.73,21.87,68.59Z"/>
    <polygon class="cls-6" points="241.54 208.96 241.54 217.71 241.12 218.26 200.31 218.26 206.6 209.96 207.36 208.96 241.54 208.96"/>
    <polygon class="cls-6" points="241.54 208.96 241.54 217.24 240.77 218.26 199.97 218.26 177.18 139.53 179.44 136.55 183.48 131.21 184.23 130.22 186.06 136.55 186.92 139.53 207.02 208.96 241.54 208.96"/>
    <g>
      <polygon class="cls-12" points="241.54 187.25 241.54 208.96 207.02 208.96 186.92 139.53 186.06 136.55 184.23 130.22 225.04 130.22 241.54 187.25"/>
      <path class="cls-10" d="M225.79,129.22h-42.89l.58,1.99,1.54,5.34,21.25,73.41h35.27v-2h-33.76l-20.68-71.41-1.54-5.33h38.73l17.25,59.63v-7.19l-15.75-54.44Z"/>
    </g>
    <path class="cls-1" d="M158.06,65.18h30.73c5.53,17.35,11.06,34.71,16.6,52.06-10.73.07-21.46.15-32.19.22l-15.13-52.28Z"/>
    <polygon class="cls-14" points="163.14 66.98 176.9 114.5 201.53 114.5 205.78 108.88 181.16 108.88 169.02 66.98 167.4 61.36 163.14 66.98"/>
    <polygon class="cls-13" points="181.15 108.88 176.9 114.5 201.53 114.5 205.78 108.88 181.15 108.88"/>
    <g>
      <polygon class="cls-12" points="167.4 61.36 169.02 66.98 181.16 108.88 205.78 108.88 192.03 61.36 167.4 61.36"/>
      <path class="cls-10" d="M192.78,60.36h-26.71l.58,1.99.68,2.36.13.47,12.94,44.69h0s26.71,0,26.71,0l-14.33-49.52ZM181.91,107.88l-12.05-41.63-.31-1.07-.82-2.82h22.55l13.17,45.52h-22.54Z"/>
    </g>
    <polyline class="cls-16" points="168.76 133.11 168.76 129.22 172.91 126"/>
    <polygon class="cls-10" points="175.5 131.49 168.65 125.12 168.65 118.46 175.5 124.83 175.5 131.49"/>
    <polyline class="cls-16" points="124.75 65.81 124.75 61.92 120.6 58.7"/>
    <polygon class="cls-10" points="118.01 64.19 124.85 57.82 124.85 51.16 118.01 57.53 118.01 64.19"/>
  </g>
</svg>