<?xml version="1.0" encoding="UTF-8"?>
<svg id="Laag_2" data-name="Laag 2" xmlns="http://www.w3.org/2000/svg" viewBox="0 0 375 1510.59">
  <defs>
    <style>
      .cls-1 {
        fill: #d8e2dd;
      }

      .cls-1, .cls-2 {
        opacity: .2;
      }

      .cls-1, .cls-2, .cls-3 {
        stroke-width: 0px;
      }

      .cls-2 {
        fill: #c2d0cf;
      }

      .cls-3 {
        fill: #fff;
      }
    </style>
  </defs>
  <g id="Laag_1-2" data-name="Laag 1">
    <g>
      <rect class="cls-3" y=".59" width="375" height="1510"/>
      <path class="cls-1" d="M375,335.04v388.1c-44.85,18.59-105.64,22.07-214.31,53.96-43.69,12.82-103.24,32.62-160.69,55.74V188.87c49.8,40.85,115.66,83.11,198.61,110.27,77.11,25.25,132.72,25.57,176.39,35.9Z"/>
      <path class="cls-2" d="M375,146.17v388.1c-44.85,18.59-105.64,22.07-214.31,53.96-43.69,12.82-103.24,32.62-160.69,55.74V0c49.8,40.85,115.66,83.11,198.61,110.27,77.11,25.25,132.72,25.57,176.39,35.9Z"/>
      <path class="cls-1" d="M375,1273.98v155.64c-53.09,6.69-127.53,13.78-222.35,34.62-56.5,12.42-107.66,26.96-152.65,41.73v-411.98c54.98,16.21,120.16,38.73,192.86,73.82,55.78,26.92,126.05,66.1,182.14,106.17Z"/>
      <path class="cls-2" d="M375,1380.83v129.76H0v-309.75c54.98,16.21,120.16,38.73,192.86,73.82,55.78,26.92,126.05,66.1,182.14,106.17Z"/>
    </g>
  </g>
</svg>