<?xml version="1.0" encoding="UTF-8"?>
<svg id="Laag_2" data-name="Laag 2" xmlns="http://www.w3.org/2000/svg" viewBox="0 0 388.23 384.68">
  <defs>
    <style>
      .cls-1 {
        fill: #7fc49f;
      }

      .cls-1, .cls-2, .cls-3, .cls-4, .cls-5 {
        stroke-width: 0px;
      }

      .cls-2 {
        fill: #1d2041;
      }

      .cls-3 {
        fill: #fff;
      }

      .cls-4 {
        fill: #add3e8;
      }

      .cls-5 {
        fill: #e63b18;
      }

      .cls-6 {
        fill: none;
        stroke: #1e3765;
        stroke-linecap: round;
        stroke-miterlimit: 10;
        stroke-width: 9px;
      }
    </style>
  </defs>
  <g id="Laag_1-2" data-name="Laag 1">
    <g>
      <path class="cls-1" d="M258.67,60.04h0c0,9.84-7.99,17.82-17.82,17.82h0c0-9.84,7.99-17.82,17.82-17.82Z" transform="translate(475.12 -58.89) rotate(135)"/>
      <path class="cls-1" d="M376.53,160.46h0c0,5.46-4.43,9.89-9.89,9.89h0c0-5.46,4.43-9.89,9.89-9.89Z" transform="translate(515.62 -214.97) rotate(86.74)"/>
      <path class="cls-1" d="M353.33,159.63h0c0,4.04-3.28,7.32-7.32,7.32h0c0-4.04,3.28-7.32,7.32-7.32Z" transform="translate(28.97 -51.38) rotate(8.77)"/>
      <path class="cls-1" d="M357.96,156.88h0c0,4.04-3.28,7.32-7.32,7.32h0c0-4.04,3.28-7.32,7.32-7.32Z" transform="translate(28.6 -52.11) rotate(8.77)"/>
      <path class="cls-1" d="M370.89,161.93h0c0,5.46-4.43,9.89-9.89,9.89h0c0-5.46,4.43-9.89,9.89-9.89Z" transform="translate(749.49 45.78) rotate(137.96)"/>
      <path class="cls-1" d="M360.16,159.31h0c0,5.46-4.43,9.89-9.89,9.89h0c0-5.46,4.43-9.89,9.89-9.89Z" transform="translate(727.04 286.33) rotate(173.36)"/>
      <path class="cls-1" d="M362.33,152.93h0c0,5.46-4.43,9.89-9.89,9.89h0c0-5.46,4.43-9.89,9.89-9.89Z" transform="translate(113.95 463.46) rotate(-75.29)"/>
      <path class="cls-1" d="M365.18,155.6h0c0,4.24-3.44,7.67-7.67,7.67h0c0-4.24,3.44-7.67,7.67-7.67Z" transform="translate(3.82 327.26) rotate(-48.95)"/>
      <path class="cls-1" d="M370.41,153.41h0c0,5.46-4.43,9.89-9.89,9.89h0c0-5.46,4.43-9.89,9.89-9.89Z" transform="translate(-30.4 114.38) rotate(-17.09)"/>
      <path class="cls-1" d="M366.23,161.12h0c0,6.21-5.05,11.26-11.26,11.26h0c0-6.21,5.05-11.26,11.26-11.26Z" transform="translate(757.76 157.02) rotate(153.78)"/>
      <path class="cls-1" d="M320.03,53h0c0,7.48-6.07,13.55-13.55,13.55h0c0-7.48,6.07-13.55,13.55-13.55Z" transform="translate(618.49 152.13) rotate(-173.97)"/>
      <path class="cls-1" d="M248.42,55.27h0c0,7.33-5.95,13.28-13.28,13.28h0c0-7.33,5.95-13.28,13.28-13.28Z" transform="translate(454.79 191.96) rotate(-162.96)"/>
      <path class="cls-1" d="M307.96,70.97h0c0,4.84-3.93,8.76-8.76,8.76h0c0-4.84,3.93-8.76,8.76-8.76Z" transform="translate(571.74 236.36) rotate(-162.96)"/>
      <path class="cls-1" d="M346.15,78.15h0c0,7.33-5.95,13.28-13.28,13.28h0c0-7.33,5.95-13.28,13.28-13.28Z" transform="translate(688.46 58.4) rotate(161.65)"/>
      <path class="cls-1" d="M341.26,111.82h0c0,7.33-5.95,13.28-13.28,13.28h0c0-7.33,5.95-13.28,13.28-13.28Z" transform="translate(619.84 329.79) rotate(-162.96)"/>
      <path class="cls-1" d="M61.56,36.44h0c9.84,0,17.82,7.99,17.82,17.82h0c-9.84,0-17.82-7.99-17.82-17.82h0Z" transform="translate(89.11 127.05) rotate(-135.61)"/>
      <path class="cls-1" d="M55.92,45.83h0c7.33,0,13.28,5.95,13.28,13.28h0c-7.33,0-13.28-5.95-13.28-13.28h0Z" transform="translate(138.1 83.5) rotate(162.35)"/>
      <path class="cls-1" d="M263.12,10.17h0c7.33,0,13.28,5.95,13.28,13.28h0c-7.33,0-13.28-5.95-13.28-13.28h0Z" transform="translate(484.12 181.43) rotate(-146.04)"/>
      <path class="cls-1" d="M164.58,56.85h0c0,9.84-7.99,17.82-17.82,17.82h0c0-9.84,7.99-17.82,17.82-17.82Z" transform="translate(285.44 -42.49) rotate(117.26)"/>
      <path class="cls-1" d="M287.28,5.89h0c0,9.84-7.99,17.82-17.82,17.82h0c0-9.84,7.99-17.82,17.82-17.82Z" transform="translate(40.81 160.66) rotate(-34.59)"/>
      <path class="cls-1" d="M357.23,84.27h0c0,9.84-7.99,17.82-17.82,17.82h0c0-9.84,7.99-17.82,17.82-17.82Z" transform="translate(146.81 -205.82) rotate(41.05)"/>
      <path class="cls-1" d="M147.44,60.14h0c0,4.46-3.62,8.09-8.09,8.09h0c0-4.46,3.62-8.09,8.09-8.09Z" transform="translate(297.85 35.39) rotate(145.33)"/>
      <path class="cls-1" d="M345.38,116.48h0c0,4.46-3.62,8.09-8.09,8.09h0c0-4.46,3.62-8.09,8.09-8.09Z" transform="translate(690.62 25.47) rotate(145.33)"/>
      <path class="cls-1" d="M86,121.62h0c0,8.11-6.59,14.7-14.7,14.7h0c0-8.11,6.59-14.7,14.7-14.7Z" transform="translate(217.42 69.31) rotate(98.11)"/>
      <path class="cls-1" d="M13.74,206.39h0c0,8.11-6.59,14.7-14.7,14.7h0c0-8.11,6.59-14.7,14.7-14.7Z" transform="translate(218.89 237.57) rotate(98.11)"/>
      <path class="cls-1" d="M87.86,340.98h0c0,8.11-6.59,14.7-14.7,14.7h0c0-8.11,6.59-14.7,14.7-14.7Z" transform="translate(-23.92 690.24) rotate(-150)"/>
      <path class="cls-1" d="M79.28,117.97h0c0,2.77-2.25,5.02-5.02,5.02h0c0-2.77,2.25-5.02,5.02-5.02Z" transform="translate(97.99 -20.8) rotate(41.05)"/>
      <path class="cls-1" d="M73.62,124.42h0c0,2.38-1.93,4.31-4.31,4.31h0c0-2.38,1.93-4.31,4.31-4.31Z" transform="translate(202.17 190.18) rotate(145.41)"/>
      <path class="cls-1" d="M146.91.96h0c0,8.11-6.59,14.7-14.7,14.7h0c0-8.11,6.59-14.7,14.7-14.7Z" transform="translate(111.64 145.31) rotate(-81.89)"/>
      <path class="cls-1" d="M143.95,14.29h0c0,2.77-2.25,5.02-5.02,5.02h0c0-2.77,2.25-5.02,5.02-5.02Z" transform="translate(237.07 122.36) rotate(-138.95)"/>
      <path class="cls-1" d="M148.89,8.57h0c0,2.38-1.93,4.31-4.31,4.31h0c0-2.38,1.93-4.31,4.31-4.31Z" transform="translate(19.86 85.2) rotate(-34.59)"/>
      <path class="cls-1" d="M74.84,229.52h0c0,8.11-6.59,14.7-14.7,14.7h0c0-8.11,6.59-14.7,14.7-14.7Z" transform="translate(144.24 2.84) rotate(34.06)"/>
      <path class="cls-1" d="M66.23,227.87h0c0,4.13-3.36,7.49-7.49,7.49h0c0-4.13,3.36-7.49,7.49-7.49Z" transform="translate(-84.6 42.1) rotate(-22.72)"/>
      <path class="cls-1" d="M113.91,302.08h0c8.11,0,14.7,6.59,14.7,14.7h0c-8.11,0-14.7-6.59-14.7-14.7h0Z" transform="translate(-99.67 557.72) rotate(-116.94)"/>
      <path class="cls-1" d="M122.11,311.31h0c4.13,0,7.49,3.36,7.49,7.49h0c-4.13,0-7.49-3.36-7.49-7.49h0Z" transform="translate(-210.05 267.45) rotate(-60.16)"/>
      <path class="cls-1" d="M5.51,220.41h0c4.13,0,7.49,3.36,7.49,7.49h0c-4.13,0-7.49-3.36-7.49-7.49h0Z" transform="translate(231.68 253.47) rotate(99.87)"/>
      <path class="cls-1" d="M83.63,347.3h0c4.13,0,7.49,3.36,7.49,7.49h0c-4.13,0-7.49-3.36-7.49-7.49h0Z" transform="translate(420.13 209.1) rotate(80.87)"/>
      <g>
        <path class="cls-6" d="M281.23,28.84c-48.8-24.5-108.42-25.7-158.06-2.87-12.4,5.63-24.21,12.57-35.05,20.79-10.84,8.23-20.78,17.63-29.6,27.99l-1.67,1.93-1.58,2-3.15,4.01c-2.06,2.71-3.98,5.52-5.95,8.29l-2.76,4.29c-.9,1.44-1.87,2.84-2.69,4.34l-2.55,4.43c-.42.74-.85,1.47-1.26,2.22l-1.17,2.27c-6.31,12.07-11.29,24.83-14.81,37.99-3.55,13.16-5.51,26.72-6.02,40.31-.51,13.58.45,27.22,2.91,40.62,2.46,13.39,6.35,26.54,11.75,39.05,5.39,12.51,12.15,24.42,20.12,35.45l1.48,2.08c.5.69,1.04,1.34,1.56,2.02l3.15,4.01c1.03,1.36,2.18,2.61,3.28,3.91l3.34,3.85c2.34,2.46,4.65,4.97,7.07,7.35l3.69,3.52,1.85,1.76,1.92,1.67c10.2,9,21.38,16.89,33.3,23.48,23.85,13.16,50.72,20.82,77.87,22.43"/>
        <path class="cls-6" d="M366.02,186.77c.05-.87.09-1.74.05-2.61-.05-.87-.1-1.75-.4-2.57h0c-1.19-15.89-4.66-31.59-10.25-46.51-2.84-7.44-6.19-14.68-10.01-21.67-3.84-6.98-8.24-13.64-13.02-20.01-1.23-1.57-2.38-3.19-3.67-4.71l-3.84-4.58c-2.68-2.95-5.34-5.91-8.2-8.68-5.67-5.58-11.67-10.85-18.09-15.57-6.41-4.72-13.14-9.01-20.13-12.83-7-3.81-14.3-7.03-21.77-9.8-7.46-2.79-15.15-4.95-22.94-6.59-3.88-.89-7.83-1.45-11.76-2.07l-5.93-.69c-1.98-.26-3.97-.31-5.95-.47l-2.98-.21-2.99-.07c-1.99-.02-3.98-.14-5.97-.09-3.98.11-7.97.13-11.93.52-3.98.22-7.92.81-11.87,1.3-1.97.29-3.92.68-5.89,1.02l-2.94.53-2.91.67c-15.56,3.43-30.58,9.2-44.5,16.92l-5.18,2.98c-1.7,1.04-3.36,2.14-5.04,3.21-.83.55-1.69,1.06-2.5,1.63l-2.43,1.73-2.43,1.73c-.82.57-1.62,1.16-2.39,1.78l-4.7,3.69c-1.54,1.26-3.02,2.59-4.53,3.89-.75.66-1.51,1.29-2.25,1.97l-2.16,2.06c-1.42,1.39-2.92,2.71-4.28,4.16-22.39,22.66-38.14,51.84-44.55,83.07-6.44,31.2-3.86,64.23,7.61,93.97,11.38,29.77,31.56,56.06,57.28,74.87,25.66,18.87,56.85,30.2,88.68,31.92"/>
        <path class="cls-6" d="M265.7,60.04c-9.87-4.94-20.32-8.68-31.02-11.33-1.33-.38-2.69-.61-4.04-.91l-4.05-.85-4.09-.66c-1.36-.23-2.72-.46-4.1-.59-2.74-.31-5.48-.69-8.24-.82l-4.13-.28-4.15-.09c-11.06-.19-22.13.79-32.94,2.98-10.8,2.24-21.35,5.69-31.4,10.24-10.04,4.56-19.63,10.17-28.43,16.86-8.8,6.68-16.87,14.32-24.03,22.73l-1.36,1.56-1.28,1.63-2.56,3.26c-1.67,2.2-3.22,4.49-4.83,6.72l-2.23,3.49c-.73,1.17-1.53,2.3-2.19,3.51l-2.06,3.59c-.34.6-.7,1.19-1.03,1.8l-.94,1.84c-5.11,9.78-9.14,20.11-11.99,30.77-2.88,10.65-4.46,21.64-4.88,32.69-.41,11.06.37,22.15,2.36,33,2,10.85,5.13,21.49,9.5,31.62,4.37,10.13,9.85,19.78,16.32,28.74l1.2,1.69c.4.56.85,1.09,1.27,1.64l2.56,3.26c.82,1.11,1.77,2.12,2.67,3.17l2.71,3.13c1.91,1.99,3.78,4.03,5.74,5.97l3,2.86,1.5,1.43,1.57,1.35c8.29,7.31,17.36,13.71,27.01,19.06,19.34,10.66,41.04,16.85,63.1,18.17"/>
      </g>
      <path class="cls-2" d="M141.5,339.54c-.62-3.49,1.83-6.78,5.34-7.28,4.45-.64,9.61,8.54,15.33,7.49,0,0,16.3-3,31.07-7.01,32.43-8.82,71.66-29.07,77.23-31.98.18-.1.37-.18.56-.26,7.63-3.12,16.79-5.93,27.18-8.33,14.92-3.44,33.63-5.9,50.13-2.5,2.09.43,3.81,1.88,4.59,3.86,4.48,11.37,15.28,51.83-38.4,88.88-.98.68-2.14,1.05-3.33,1.1-14.41.54-110.43,3.8-150.63-3.73-1.35-.25-2.58-.92-3.5-1.94-3.7-4.06-13.32-25.61-15.57-38.3Z"/>
      <path class="cls-4" d="M189.46,319.31s162.85-85.55,177.83-17.5c0,0-3.79-78.28-92.89-138.71-5.78,12.07-14.45,30.41-24.76,53.11-6.48,14.27-9.52,21.27-11.59,25.81-8.33,18.29-22.62,44.48-48.6,77.3Z"/>
      <path class="cls-1" d="M357.74,150.76h0c0,7.72-6.27,13.98-13.98,13.98h0c0-7.72,6.27-13.98,13.98-13.98Z" transform="translate(390.07 -224.82) rotate(71.65)"/>
      <path class="cls-1" d="M349.24,158.47h0c0,4.02-3.26,7.28-7.28,7.28h0c0-4.02,3.26-7.28,7.28-7.28Z" transform="translate(215.85 -196.89) rotate(45)"/>
      <path class="cls-1" d="M365.99,126.39h0c0,4.02-3.26,7.28-7.28,7.28h0c0-4.02,3.26-7.28,7.28-7.28Z" transform="translate(198.08 -218.14) rotate(45)"/>
      <path class="cls-1" d="M379.75,160.13h0c0,4.02-3.26,7.28-7.28,7.28h0c0-4.02,3.26-7.28,7.28-7.28Z" transform="translate(225.96 -217.98) rotate(45)"/>
      <rect class="cls-4" x="337.85" y="188.27" width="13.8" height="29.67" rx="6.9" ry="6.9" transform="translate(44.22 -61.06) rotate(10.81)"/>
      <rect class="cls-4" x="360.34" y="192.24" width="13.8" height="29.67" rx="6.9" ry="6.9" transform="translate(45.36 -65.21) rotate(10.81)"/>
      <path class="cls-1" d="M379.3,152.73h0c0,6.45-5.24,11.69-11.69,11.69h0c0-6.45,5.24-11.69,11.69-11.69Z" transform="translate(684.04 419.62) rotate(-162.96)"/>
      <path class="cls-3" d="M286.67,179.79c-.42-.37-.87-.86-1.35-1.1-.04-.03,0,.07.18-.02.14-.14.08-.12.1-.11.29.79.74,1.55,1.17,2.33,10.21,17.85,24.51,49.52,17.31,69.94.14-3.28-.07-6.46-.55-9.61-2.52-15.81-8.44-30.76-13.56-45.9-1.77-5.42-3.88-10.76-5.02-16.38,0-.25-.11-.48.18-.77.27-.15.42,0,.46.02.52.47.74,1.03,1.07,1.6h0Z"/>
      <path class="cls-3" d="M347.81,292.95c1.66,20.33-2.77,48.94-16.85,64.44,9.72-19.9,12.62-42.9,16.85-64.44h0Z"/>
      <path class="cls-5" d="M360.85,161.1h0c16.23,0,29.4,13.18,29.4,29.4v1.46c0,3.47-2.81,6.28-6.28,6.28h-46.24c-3.47,0-6.28-2.81-6.28-6.28v-1.46c0-16.23,13.18-29.4,29.4-29.4Z" transform="translate(40.11 -64.5) rotate(10.81)"/>
    </g>
  </g>
</svg>